<svg width="1530" height="366" viewBox="0 0 1530 366" fill="none" xmlns="http://www.w3.org/2000/svg">
<g id="Frame" clip-path="url(#clip0_5_3)">
<g id="yeuxDroit_1_">
<path id="contour_1_1_" d="M1530.4 27.4C1526 30.3 1521.7 33.6 1517 36C1510.3 39.4 1503.2 41.9 1496.5 45.2C1489.2 48.8 1486.1 55 1487.4 63.2C1494.8 110.7 1480.2 151 1448.3 186C1390.2 249.8 1317.4 278.6 1231.9 277.6C1211.1 277.3 1190.3 276.3 1169.6 275.7C1164.9 275.6 1160.1 275.8 1155.3 276.1C1140.1 276.9 1129.2 284.5 1124.8 298.7C1119.8 314.9 1116.6 331.6 1112.6 348.1C1111.7 351.7 1111.1 355.5 1109.6 358.9C1108.7 360.9 1106.4 362.2 1104.7 363.9C1103.3 362.3 1101.1 360.8 1100.6 359C1098.2 349.8 1095.2 340.6 1094.5 331.2C1089.4 267 1097.4 204.7 1123.4 145.3C1142.5 101.4 1173.6 68 1213.4 42.1C1268.7 6.10001 1330 -3.69999 1394.6 1.10001C1429.9 3.70001 1464.9 7.70001 1499.3 16C1509.6 18.5 1519.7 21.8 1529.9 24.7C1530.1 25.7 1530.3 26.5 1530.4 27.4ZM1227.1 248.6C1267.8 247.8 1300.7 243.1 1332 230.8C1364.6 218 1394.7 201 1416.6 173.1C1427 159.9 1434.2 144.2 1442.1 129.2C1451.7 110.9 1455.7 91.1 1454.8 70.5C1453.8 48.3 1438.6 28.8 1417.7 23.8C1355.2 9.10001 1294.8 14.1 1237.8 45.3C1216.5 57 1198.1 72.4 1183.1 91.5C1159.4 121.6 1145.2 155.7 1142.2 193.9C1140.1 220.4 1154.8 239.6 1179.8 243.4C1197.8 246.2 1216 247.4 1227.1 248.6Z" fill="black"/>
<path id="Vector" d="M1454.8 70.5C1453.8 48.3 1438.6 28.7 1417.7 23.8C1355.2 9.1 1294.9 14.1 1237.8 45.3C1216.5 57 1198.2 72.4 1183.1 91.5C1159.4 121.6 1145.2 155.7 1142.2 193.9C1140.1 220.4 1154.8 239.6 1179.8 243.4C1197.8 246.2 1216.1 247.4 1227.1 248.6C1267.8 247.8 1300.6 243.1 1332 230.8C1364.6 218 1394.7 201 1416.6 173.1C1427 159.9 1434.2 144.2 1442.1 129.2C1451.7 110.9 1455.7 91.1 1454.8 70.5Z" fill="black"/>
</g>
<g id="yeuxGauche_1_">
<path id="contour_1_" d="M0.4 26.4C10.6 23.5 20.7 20.2 31 17.7C65.5 9.40002 100.5 5.40002 135.8 2.80002C200.4 -1.99998 261.6 7.80002 317 43.8C356.8 69.7 387.9 103.1 407 147C432.9 206.4 441 268.7 435.9 332.9C435.2 342.3 432.1 351.5 429.8 360.7C429.3 362.6 427.1 364 425.7 365.6C424 364 421.6 362.6 420.8 360.6C419.3 357.2 418.7 353.4 417.8 349.8C413.8 333.3 410.6 316.5 405.6 300.4C401.2 286.2 390.3 278.6 375.1 277.8C370.4 277.5 365.6 277.3 360.8 277.4C340 278 319.3 279 298.5 279.3C213.1 280.4 140.2 251.5 82.1 187.7C50.2 152.7 35.6 112.3 43 64.9C44.3 56.7 41.2 50.5 33.9 46.9C27.2 43.6 20.1 41.1 13.4 37.7C8.7 35.3 4.5 32 0 29.1C0.1 28.1 0.2 27.3 0.4 26.4ZM350.6 245.1C375.6 241.3 390.3 222.1 388.2 195.6C385.2 157.4 371 123.3 347.3 93.2C332.2 74.1 313.9 58.7 292.6 47C235.5 15.7 175.1 10.7 112.6 25.4C91.7 30.3 76.5 49.9 75.5 72.1C74.6 92.7 78.6 112.5 88.2 130.8C96.1 145.8 103.3 161.5 113.7 174.7C135.6 202.6 165.7 219.6 198.3 232.4C229.7 244.7 262.5 249.4 303.2 250.2C314.3 249.1 332.6 247.8 350.6 245.1Z" fill="black"/>
<path id="Vector_2" d="M388.1 195.5C385.1 157.3 370.9 123.2 347.2 93.1C332.2 74 313.8 58.6 292.5 46.9C235.5 15.7 175.1 10.7 112.6 25.4C91.7 30.4 76.5 49.9 75.5 72.1C74.6 92.7 78.7 112.5 88.2 130.8C96.1 145.8 103.3 161.5 113.7 174.7C135.6 202.6 165.7 219.6 198.3 232.4C229.7 244.7 262.5 249.4 303.2 250.2C314.2 249 332.5 247.8 350.5 245C375.5 241.2 390.2 222 388.1 195.5Z" fill="black"/>
</g>
<path id="retine_gauche" d="M253.367 52C250.367 57.6 246.967 62.4 244.867 67.7C232.367 100.6 228.567 134.5 235.267 169.3C236.167 173.8 238.267 178.1 239.867 182.7C262.367 167.3 272.267 73.5 253.367 52Z" fill="#A39C7F"/>
<path id="retine_droite" d="M1292.04 67C1295.04 72.6 1298.44 77.4 1300.54 82.7C1313.04 115.6 1316.84 149.5 1310.14 184.3C1309.24 188.8 1307.14 193.1 1305.54 197.7C1282.94 182.4 1273.04 88.5 1292.04 67Z" fill="#9B9784"/>
</g>
<defs>
<clipPath id="clip0_5_3">
<rect width="1530.4" height="365.6" fill="white"/>
</clipPath>
</defs>
</svg>
