<?xml version="1.0" encoding="utf-8"?>
<!-- Generator: Adobe Illustrator 25.0.1, SVG Export Plug-In . SVG Version: 6.00 Build 0)  -->
<svg version="1.1" id="Layer_1" xmlns="http://www.w3.org/2000/svg" xmlns:xlink="http://www.w3.org/1999/xlink" x="0px" y="0px"
	 viewBox="0 0 422.2 693" style="enable-background:new 0 0 422.2 693;" xml:space="preserve">
<style type="text/css">
	.st0{fill:#F9C280;}
	.st1{fill:#E5AE73;}
	.st2{fill:#D86609;}
	.st3{fill:#CC5D0A;}
	.st4{fill:#D1640B;}
	.st5{fill:#CE7411;}
	.st6{opacity:0.7;fill:#BC640D;enable-background:new    ;}
	.st7{opacity:0.3;fill:#773F12;enable-background:new    ;}
	.st8{fill:#E5830C;}
	.st9{opacity:0.3;fill:#D8480F;enable-background:new    ;}
	.st10{fill:#E59517;}
	.st11{opacity:0.5;fill:#F4BD21;enable-background:new    ;}
	.st12{opacity:0.5;fill:#F2EC22;enable-background:new    ;}
	.st13{opacity:0.5;fill:#D8480F;enable-background:new    ;}
	.st14{fill:#D15D0F;}
	.st15{fill:#D1470F;}
	.st16{opacity:0.6;fill:#E85615;enable-background:new    ;}
	.st17{fill:#F27A0F;}
	.st18{fill:#ED6F07;}
	.st19{opacity:0.5;fill:#F7CFA4;enable-background:new    ;}
	.st20{fill:#351F0C;}
	.st21{fill:#5BE65F;}
	.st22{fill:#43BF43;}
	.st23{fill:none;stroke:#000000;stroke-width:1.1847;stroke-miterlimit:10;}
	.st24{fill:#FFFFFF;}
	.st25{fill:#E88815;}
	.st26{opacity:0.3;}
	.st27{fill:#D8480F;}
	.st28{fill:#C65509;}
	.st29{fill:#D65D0B;}
	.st30{fill:#E2610A;}
	.st31{fill:none;}
	.st32{fill:#D35E0F;}
	.st33{opacity:0.5;}
	.st34{fill:#E0380B;}
	.st35{fill:#E85615;}
	.st36{fill:#EA6F1C;}
	.st37{fill:#F79A21;}
	.st38{fill:#FC7790;}
	.st39{fill:#E86D88;}
	.st40{fill:#3A0A15;}
	.st41{fill:#F9C24C;}
	.st42{fill:#F9D4AC;}
	.st43{fill:#F4DCC1;}
	.st44{opacity:0.1;fill:#F4BD21;enable-background:new    ;}
	.st45{opacity:0.5;fill:#F4FF21;enable-background:new    ;}
	.st46{opacity:0.6;fill:#FFD303;enable-background:new    ;}
</style>
<g>
	<path class="st0" d="M220.8,79.3c0,0-15.2-19.6-25.9-43.7s-18.2-29.9-22-29.2c-3.7,0.7-5.4,23.6-5.1,36.9
		c0.2,13.3,5.6,45.3,1.2,53.3C186.9,92.9,220.8,79.3,220.8,79.3z"/>
	<path class="st1" d="M175.6,9.7c1.3,3.6,2.6,5.7,2.6,9.9c0,4.1,0.3,8.6,1.6,12.5c-1.2-2.2-2.1-6.1-4.5-7.4
		c-0.5,1.9,1.4,5.4,1.8,7.5c0.5,2.9,0.6,5.6,1.6,8.4c-1.2-1.7-2.6-3.5-3.5-5.3c-0.1,3.2,2.6,6.9,3.2,10.1c-0.9,0-1.7-0.6-2.3-1
		c-0.2,3.5,0.7,6.9,1.4,10.2c0.4,2.1,0.7,4.5,1.9,6.5c-1.4-1.8-2.7-4-4.4-5.5c0.1,3,3.3,6.4,5.3,8.6c-1.7-0.1-3.3-1.5-5-1.7
		c0.8,1.3,2.8,2.4,4.2,3.2c-1.9,0.5-3.8-0.5-5.7-0.2c1.7,1.3,4.6,1.7,6.7,2.9c-2.1,0.5-4.8,0.7-5.7,3c0.9,0.5,2,0.3,2.6,1.1
		c-1.8,0.4-3.7-0.5-5.5-0.9c1.8,0.4,3.7,1.6,4.8,3c-2.1,0.5-4.8-0.3-2.4,2.3c1.4,1.5,3.4,2.3,5.3,3.2c-2.1,0.7-4.6,0.3-6.9,0.3
		c1.7-0.1,4.2,1.2,5.7,2c-1.4,1.6-1.1,1.9,1.1,2.4c-0.2,1.9-4.2,1.3-4.6,3.5c1.7,0.1,2.9-0.3,4.4-0.5c-0.5,1-1.8,1.6-2,2.9
		c6.5-3.7,15.6-3.2,22.8-4.3c3.5-0.5,6.6-0.6,7.1-4.5c0.5-3.8-1.5-6.8-3.1-10s-2-6.7-3.2-10c-2.1-6.2-3.4-12.6-5.4-18.9
		c-2.5-7.9-5.3-17-10.2-23.8c-1.9-2.6-5.2-8.5-8.6-8.9"/>
	<path class="st2" d="M194.9,35.6c-10.8-24.1-18.2-29.9-22-29.2c-0.5,0.1-1,0.6-1.4,1.5c2.6,0.6,5.5,3.1,7.5,10
		c4.7,16.1,10.3,58.7,23.6,64.5c2,0.9,3.8,1.5,5.4,1.9c7.5-2.8,12.8-4.9,12.8-4.9S205.6,59.7,194.9,35.6z"/>
	<path class="st3" d="M214.2,70.1C200.3,74,190.6,53.2,187,42.4c-2.3-6.8-4.3-12-5.8-15.5c4.3,19.3,10.1,50.5,21.4,55.5
		c2,0.9,3.8,1.5,5.4,1.9c7.5-2.8,12.8-4.9,12.8-4.9S218.1,75.9,214.2,70.1z"/>
	<path class="st2" d="M260.3,79.1c0,0,24.5-42.3,31.8-57.3c7.2-15,19.6-25,26.4-20.8c6.8,4.3,10.7,28.8,10.7,28.8l0.7-6.1l0.9,16.1
		l1.4-2.3l-0.7,13.6c0,0,8.9,66.1,2.8,71.3c-6.1,5.1-19.2-26.6-37.9-32.7C277.8,83.5,260.3,79.1,260.3,79.1z"/>
	<path class="st3" d="M334.4,122.3c2.8-2.3,2.4-17.3,1.3-32.8c-7.2,12.7-16.3-12.7-15.1-30.7c1.2-19,0.4-36.3,0.4-36.3l-28.4,64.6
		c0,0.4,0,0.8,0,1.2c1.4,0.4,2.7,0.9,4.1,1.3C315.2,95.7,328.3,127.5,334.4,122.3z"/>
	<path class="st0" d="M272.4,84.9c0,0-0.2-20.6,9.1-37.6c9.3-17.1,13.1-34.1,25-42.3s13.8-5.1,14.7,12.9c0.9,18-10.3,70.3-2.1,83.7
		C327.4,114.9,272.4,84.9,272.4,84.9z"/>
	<path class="st1" d="M321.3,17.9c-0.5-8.9-1.2-14.2-3.2-16.2c0.1,1.3,0,2.5,0,3c0,4-1.2,6.6-3.3,9.9c-4.2,6.7-6,14.5-7.7,22.1
		c-1.4-3.7-0.9-8.2-1.1-12.2c-1.2,3.1-1.8,6.7-1.9,10c-0.1,1.8,0.3,4.7-0.4,6.2c-1.3-4-1.6-8.8-2.8-12.9c-0.4,3.6-1,7.3-1.3,11
		c-0.1,1.3-0.2,2.6-0.6,3.9c-0.5,1.7-1.5,3.2-1.9,4.8c-0.4,1.3,0,3.6-0.9,4.5c-1.4-3.5-2.8-7.2-4.2-10.5c-0.3,3.9,0.3,8-0.1,11.8
		c-1.2-1-2-2.8-2.7-4.3c-0.2,2.9-0.1,5.8,0.2,8.6c-1.9-1.7-3.1-4.2-5.1-5.7c-0.6,2.9,2.1,7.5,3.1,10.2c-1.1-0.1-2.2-0.5-3.3-0.3
		c-0.1,1.9,0.3,3.4,2.1,4.3c-1.8,0-4,0.4-5.5-0.6c0.1,1.3,3.7,2.4,4.9,2.7c-1.2,0.1-2.6-0.2-3.7,0.2c0.3,1.4,3.9,1.3,5.2,1.9
		c-1.3,0.8-3.1,0.7-4.4,1.4c-0.8,0.4-0.9,0.8-1.6,1.4c-1.1,1-2.5,1.8-3.5,2.9c1.4,0,2.7,0.4,4,0.5c-1.3,0.4-3,0.6-4.3,1.1
		c0.7,0.3,2.1,0.8,2.2,1.6c0.1,0.5-1.2,0.9-1,2.1c0.2,0.9,1.6,1.3,2.1,1.9c0.8,1,1.2,2.4,1.6,3.5c0.5,1.2,1,2.7,1.7,4
		c15.6,8,41,19.9,35.3,10.6C311,88.2,322.2,35.9,321.3,17.9z"/>
	<path class="st4" d="M17.9,610.4c0,0,20.2-17.9,61.3-27.9c12.8,12.3,14.6,30.7,14.6,30.7L90,634.9L17.9,610.4z"/>
	<path class="st5" d="M303.9,386.4c0,0,64.5,83.2,61.8,133.2c0,0.5-3.7-4.7-3.7-4.7s1.6,26.3-4.2,44.2c0,0-1.6-8.4-1.6-6.3
		c0,2.1,0,12.1,0,12.1l-2.1-4.7c0,0-7.9,42.4-17.9,60.3c-28.4,8.4-88.2,29.5-131.3,10.1C198.2,547.4,303.9,386.4,303.9,386.4z"/>
	<path class="st6" d="M336.4,460.9c4.4,5.5,8.7,12.1,11.7,18.6c3.9,8.8,2.7,21,2.9,30.6c-1.7-5-2.3-11-4.8-15.6
		c-0.6,7,1.5,15.4-0.5,22c-1.9-2.6-4-6.4-5.3-9.4c-0.1,9.4,2.1,19.2,3.4,28.4c1.1,7.8-0.4,16.7-2.9,23.8c-0.2-4.4-2.3-11.2-4.1-15.2
		c0.1,6.1,0.7,12.9-0.1,18.9c-1.8-1.7-2.8-4.9-3.8-7.2c-1.1,13.8,0.4,26.8-2.5,40.4c-0.1-4.6-1.1-10.6-2.7-14.9
		c-1.1,5.8-0.6,11.6-1,17.5c-2-2.5-1.7-6.1-3.2-8.6c-1.1,10.9-2.6,21.5-3.3,32.5c-1.5-1.5-2.3-3.6-3.1-5.4c-4.4,2.1-1,10.5-6.8,6.3
		c-2-1.5-1.8-3.1-4.2-3.3c-2.7-0.2-7.8,4.9-10.8,6c-4.1,1.5-8.2,0.8-12.4,1.9c-4.6,1.3-3.9,3.7-5.8,7.8c-2.2-6.6,0.3-15.6-2.1-21.8
		c-0.4,2-1.7,4.5-1.9,6.6c0-9.2-1.9-18.5-1.7-27.9c-0.2,1.9-0.9,3.7-1.3,5.5c-3.8-5.5-4.5-15-4.8-21.6c-0.4-10.1,0-20.4,0-30.5
		c0-8.2-0.4-15.5-1.6-23.3c-1.1-6.5-2.1-14.9,1-20.9c6.3-12,16.6-21,23.9-32.1c3.8-5.7,8.5-9.9,12.7-15.1c2.4-3,2.4-3.7,5.8-4.7
		c4.6-1.4,15.2-2.5,19.6,0.5c3.8,2.7,7.3,11.6,7.7,16.1"/>
	<path class="st7" d="M265.4,511c0,0,0.9,120.2,8.7,122.5c7.8,2.3,9-1.8,9-1.8l-7.3-131.6"/>
	<path class="st8" d="M365.1,282.7c0,0,20.2,26,10.7,60.7c-0.5-3.7-1.6-7.4-1.6-7.4s-3.2,30-8.4,44.7l-1.1-5.8l-2.1,14.2l-1.1-4.7
		l-2.6,12.6c0,0-9.5,38.4-13.1,52.1c-3.7,13.7-37.9,154.6-33.1,183.5c-17.4,4.7-31.5,11-31.5,11s-3.2-127.8-12.6-169.8
		C259,431.8,365.1,282.7,365.1,282.7z"/>
	<path class="st9" d="M374.4,299.1c-3.5-10.7-9.3-16.3-9.3-16.3s-106,149.1-96.6,191.1c4.6,20.5,7.7,61.4,9.7,97.9
		c0.5-1,1.1-1.9,1.6-3c1.2-2.6,1.5-3.8,2.1-6.7c1-5.1,1.8-10.4,2.2-15.5c0.6-7,0.2-14.8,2.2-21.7c0.4-0.2,0.8-0.2,1.1,0
		c1.7,4.3,3.1,8.9,4.5,13.2c5.2-4,3.2-20.8,3.2-27c0-7.1-3.1-18-0.3-24.7c2,1.5,3.2,4.4,3.2,7c3.7-4.4,4.8-12.1,7-17.6
		c0.1,4.9-0.1,16.7,3.8,19.9c0.3-13.4,6.1-26.7,9.5-39.6c1.5-5.5,3.1-10.8,4.4-16.2c1.4-5.8-0.1-14,4.1-18.5
		c2.8,5.3,5.5,11.2,8.7,16.4c4.7-3.5,2.9-19.9,3.8-25.3c0.7-4.4,1.6-7.4,3.3-11.3c1.6-3.6,2.5-10,5.2-12.7c0.9,2.5,0,5.6,0.9,7.9
		c4.2-5.3,4.5-16.2,7.1-22.8c2.7-6.7,3.5-15.8,7-21.8c0.8,2.5,0.9,5.4,1.4,7.9c0.5-7.1-1-14.9,1.1-21.6c2.3-7.2,6.5-12.5,7.8-20.2
		c0.8,1.9,1.4,4.3,2.1,6.4c2.1-3.5,0.1-8.5-0.1-12.4C375.1,307.7,374.1,302.9,374.4,299.1L374.4,299.1z"/>
	<path class="st7" d="M359,292.6c0,0,13.4,27.3-1.6,58.3c-15,36.4-23.5,44.4-25.7,49.2v-4.8c0,0-16.1,43.3-25.2,57.8
		c-9.1,14.4-35.9,65.3-39.6,77.6s-8-42.8-8-42.8S357.4,317.3,359,292.6z"/>
	<path class="st10" d="M330.8,122.3c0,0,3.5,20.1,6.5,44.3c3,24.3,1.5,49.8,6.8,57.8c-4.4-1.5-5.9-4.4-5.9-4.4s9.5,22.8,16.6,38.2
		c-4.4-2.4-6.5-5.6-6.5-5.6s18.1,24.9,20.1,42.4c-2.7-3.9-3.3-5.6-3.3-5.6s2.7,9.5,3,14.2c-0.9-0.9-2.4-3.6-2.4-3.6
		s0.6,36.7-19.8,63.1c0.6-5.9,0.6-11.6,0.6-11.6s-3.8,23.4-8.9,30.8c-0.3-4.1-0.3-8-0.3-8s-14.8,29.9-20.7,40
		c-5.9,10.1-65.2,121.4-66.6,142.2c-1.5,20.7-15.1,100.4-54.2,99.8c-42.9,1.5-115.5-9.8-116.4-20.7c-0.9-11,0-24-2.1-45.6
		c0,0-0.6,9.2-2.4,12.7c-0.3-13-1.8-36.1-5-59.2c0,11-2.4,14.5-2.4,14.5s-0.9-25.8-2.1-35.5c-0.6,4.7-1.8,8.3-1.8,8.3
		s0-11.6-1.8-23.1c-1.8-11.5-10.1-37.6,2.1-75.2c12.1-37.6,48-98.6,67.2-125l-4.7,2.1c0,0,15.7-15.1,21.9-22.5
		c-4.4,3-7.7,3.6-7.7,3.6s15.4-12.7,25.2-27.2c9.8-14.5,11.3-23.4,12.7-56.3c1.5-32.9,5-48.9,0-56.3
		C210.8,156,319.9,136.6,330.8,122.3z"/>
	<path class="st11" d="M172.6,425.3c-0.4,7.9,0.6,16.3,1.3,24.1c0.6,7-0.3,18.9,2.8,25c-1.7-2.2-1.4-5-3.1-7.2
		c-0.5,11.6,4,25.4,9.1,35.8c0-1.8-2.5-4-3.6-5.8c-0.1,7.7,2.1,13.9,4.8,20.8c2.5,6.5,4.3,13.8,7.6,19.9
		c6.1,11.2,14.9,19.9,17.8,32.7c-5.5-5.9-11.2-12-16.3-18.3c0.1,7.5,6.1,15.8,7.6,23.2c1,5,2.1,10,2.7,15.1c-5-7.9-12-14-19.2-19.4
		c-5.4-4.1-8.1-9.7-11.4-15c-0.4,5.1-0.5,11.1,1.2,15.9c-0.3-5.1-8.2-12.8-11.7-16.6c0.2,7.3,0.4,13.5,2.9,20.3
		c-6.9-1.7-11.6-11.3-15.4-16.7c-3.6-5.1-11.2-13.1-11.3-19.5c3.6,2,10.8,8.4,14.2,7.6c-0.5-6.8-5.9-14.4-8.2-20.8
		c-2.4-6.6-3.7-13-3.9-20c2.8,6.5,10.5,14,15.6,18.4c-1.3-4.4-5.5-8.5-5.1-13.1c1.6,2.3,3.6,5.2,6.6,5.4c1.8-3.5,0.3-11.5,0.3-15.9
		c0-6.5,0.3-13.1,0-19.6c-0.5-9.9-1.7-19.5-1.7-29.6c1.3,11.9,5,24,11.7,33.9c-0.2-5.8-0.9-10.2-2.2-15.8c-1.1-4.9-5-9.4-2.7-14.8
		c1.2,2,2.7,4.4,5.2,4.8c1.7-5.9,1.5-13.5,2.6-19.6c0.9-5.1,1.8-10.2,2.6-15.4"/>
	<path class="st11" d="M234.3,173c-0.7,13.8-6.8,27.6,0.8,41.1c0-2.8,1.2-7.6,3.8-8.9c3.5,3.2,1.4,14.5,1.3,19.2
		c0,9.6,3.5,16.7,6.4,25.4c-0.1-4.5-0.8-10.4,0.3-14.4c1.6,7.7,4.3,17.5,10.3,23.2c-0.1-2.5-0.7-6.5,0.7-8.3
		c1.9,4.1,3.9,7.3,6.9,10.6c3,3.4,6.8,5.6,8.8,9.4c4.2,7.8,7.1,20.5,6.9,29.2c1.9-3.1,0.8-7.6,1-11.1c1.3,5.2,1.7,9.6,4,14.6
		c1.2,2.6,2.3,5.1,3.2,7.8c-0.5-3,1.2-4.9,1.7-7.5c3.2,0.5,6.6,11.1,7.3,14.5c1.2,5.4,0.7,11.3,0.7,16.9c0,9.5,2.6,23.6-1.2,32.5
		c-0.6-5,1.2-10.2,2.5-14.8c-0.5,3.9,0.9,9.8,0.8,14.5c-0.1,5.8-1.7,10.9-2.6,16.5c-1.4,7.9-2.4,15.4-4.7,23
		c-1.9,6.4-4.6,13.4-5.4,20c2.9-12.9,10.5-23.9,18.3-34.1c1.1,3.5,0,7.8,1.4,11.5c3.1-1.1,5-8.7,7.9-11.3c-0.2,1.1,0.3,2.5,0.2,3.6
		c6.4-5,9.6-14,12.9-21.2c3.5-7.4,5.6-15.7,8.9-22.9c0.8,4.1,1.3,8.3,2.3,12.4c1.9-2.1,2.3-8,2.6-11c0.7-6.5,1.9-13.1,2.3-19.6
		c0.5-7,0.1-14.1,0.1-21.1c0-2.6-0.5-5.9,0.6-8.1c1.3,3.4,3.1,6.5,5.2,9.4c2.7-7.6-4.1-18.1-5-25.9c0,1.7,0.4,3.3,1.5,4.4
		c0.9-3.6-1.1-7.1-1.9-10.5c-0.7-2.7-0.2-6.4-1.6-8.7c-0.3,1.7,0.4,3.5,1.5,4.6c0.7-11.5-2.1-20.1-7.4-30
		c-5.2-9.8-13.9-17.8-18.7-27.9c-0.8,5.2,2.9,14.7,6.2,18.7c-8.2-13.2-17.1-23.8-21.1-39.1c0.1,4,0.2,8.1-0.1,12.1
		c-4.6-4.9-5.5-18.8-6.3-25.5c-1-8.6-2.8-16-5.2-24.2c-0.8-2.8-1.1-6.8-3.4-8c-2.9-1.6-7.5,1.3-10.1,2.3c-4.7,1.7-9.9,2.9-14.8,3.8
		c-5.9,1.1-11.5,1.8-17.2,3.3c-3.7,1-8.8,1.3-11.7,4.2"/>
	<path class="st12" d="M313.1,229.2c-0.5,3.4,4.7,9.1,7.3,11.1c1.9,1.5,4,2,5.6,3.8c4.3,4.8,3.7,11.3,7,16.6
		c0.3-2.1,0.2-4.5,0.1-6.7c2.6,4.2,5.1,9.8,6.2,14.5c0.8,3.4,1.5,7,1.8,10.5c0.2,2.5-0.7,6.1,0.3,8.3c0-0.4,0.3-1.2,0.3-1.8
		c1.6,2.2,1.3,6.3,1.3,9c0,4.1,0.7,8.8-0.1,12.8c-0.8,4.3-1.9,8.3-2.3,12.8c-0.4,4.3-0.4,9-1.4,13.2c-1-3.3-0.4-8.2-0.7-11.7
		c-0.3-3.1,0-6.3,0-9.3c0-3.5-0.1-6.9-0.5-10.3c-0.4-3.8-2.4-8.5-2.1-12.3c-0.7,2.9-1,6.2-1.5,9c0-4.8-1.2-10.9-2.8-15.3
		c-1.5-4-3.7-8.8-3.6-13.2c0.2,2.4,2.4,4.4,3.3,6.6c0.7,1.6,1.2,3.4,2,5.1c-0.3-10.9-5.3-20.1-8.5-30.4c1.4,0.1,1.8,1.7,2.1,2.9
		c0.2-4-6.3-10.2-9.1-13.2c-3.9-4.1-6.3-9.3-6.1-15.4"/>
	<path class="st9" d="M178.6,150.7c5,7.4,1.5,23.4,0,56.3s-3,41.8-12.7,56.3c-9.8,14.5-25.2,27.2-25.2,27.2s3.3-0.6,7.7-3.6
		c-6.2,7.4-21.9,22.5-21.9,22.5l4.7-2.1c-19.3,26.4-55.1,87.4-67.2,125c-12.1,37.6-3.9,63.7-2.1,75.2c1.8,11.6,1.8,23.1,1.8,23.1
		s1.2-3.6,1.8-8.3c1.2,9.8,2.1,35.5,2.1,35.5s2.4-3.6,2.4-14.5c3.3,23.1,4.7,46.2,5,59.2c1.8-3.6,2.4-12.7,2.4-12.7
		c2.1,21.6,1.2,34.7,2.1,45.6c0.1,1.1,0.9,2.1,2.2,3.2c4-4.1,7.2-9.1,9.6-13.7c2.5-5,5-10.6,6.7-16c1.6-5.4,0-12.7,2.3-17.8
		c3.2,4.1,5.4,9.8,7,14.6c-0.1-4.5-0.5-8.6-1.1-13c-0.7-4.8-0.7-9.4-1.8-14.1c-0.7-3.2-2-5.7-1.4-9.1c4.5,4.9,12.9,15.3,12.5,22.3
		c0-9.3-1.4-18-4.1-26.8c-2.8-8.8-8.6-19-5.7-28.4c3.1,1.4,6.1,4,7.9,7c-3.8-5.8-6.4-15.4-6.4-22.4c3,4.4,9.2,9.5,10.6,14.5
		c-1.5-6.3-6.4-11.8-7.6-18.2c-1.5-8.2,2.4-6.1,6.6-2.7c5,4.1,9.7,8,15,11.8c3.6,2.6,8.4,8.1,12.9,8c-2.8-6.4-8.3-11.4-11.6-17.8
		c-2.9-5.5-5.8-11.3-8-17.1c-3-7.6-5-18.9-1.2-26.3c2.3,5.4,7.6,11.9,9.7,18.2c-0.1-3,0.2-6.2,0.2-9.1c0-5.1-1.1-11.9,0.4-16.8
		c9.8,10.8,12.6,25.4,20.8,37c2-13.6-5.7-24.5-10-37.1c-4.2-12.4-10.8-30.6-6.4-43.7c3.5,3.7,6.5,7.8,8.2,12.6
		c-1.5-6.3-0.3-13.9-0.5-20.2c3.2,5.6,6.1,17.5,13.6,18.8c-1.3-6.4-4.9-12.7-5.9-19.1c-1.1-6.9-2.4-29.8,2.1-33.5
		c1.3,7.6,2.1,17,5.5,23.5c-0.1-10.6-0.3-25.1,4.2-34.7c2.5-5.3,5.5-9.7,7.6-14.9c0.3-0.7,0.6-1.4,0.8-2.2c2.1,1.4,4.1,2.8,5.5,5.1
		c3.1,4.8,5.6,12,7.2,17.6c-0.1-4.5-1.9-12.5-1.1-16.4c5,1.5,13.6,7.6,15.8,11.8c2.8,5.1,4.5,10.6,7.4,15.8c3.6,6.3,3.8,5.3,6.4,0
		c5.6-11.1,13.9-17.6,21.8-27.1c5.2-6.2,9.9-15.1,10-23.7c0.6,2.2,1.9,4.3,2.6,6.2c3.1-7,1.3-22.8,0.5-30.9c-0.9-9.6-3.3-20-7-29.3
		c-3-7.4-6.1-14.7-9.5-21.8c-3.5-7.3-13.1-19.6-12.5-27.9c3.2,1.3,3.9,4.5,6.5,6.8c-4.2-10.6-10.6-22.8-4.6-34.7
		c0.3,3.5,1.3,6.7,1.3,10.8c1.3-6.3,4.4-14.1,4.4-22.1c0-7.5,1.9-15.4,1.6-22.5l-15.2-19.8C200.1,151.8,186.8,152.1,178.6,150.7z"/>
	<path class="st13" d="M354.8,258.2c-7.1-15.4-16.6-38.2-16.6-38.2s1.5,3,5.9,4.4c-5.3-8-3.9-33.5-6.8-57.8
		c-3-24.3-6.5-44.3-6.5-44.3c-4.5,5.9-25.4,12.6-50.8,18.1c-1.4,0.9-2.5,1.2-3.2,2.9l15.9,10.4c0,4.7,8.4,10.6,10,16.1
		c1.7,5.7,1.9,11.5,2,17.4c0.3,9.5,5.8,22.8,11.5,30.5c0.4-6.9-1.9-14-2.7-20.9c1.7,11.7,10.6,21.7,15,32.3
		c2.8,6.6,4.9,14.1,6.3,20.6c0.3-3.2,0.1-6.5,0.2-9.7c4.6,3.3,9.1,13.6,12.4,18.6c3.7,5.7,5.1,13.9,9.5,18.7c1.2-3,2.9-3.5,4.7-2.4
		c-5.2-10.6-11.6-19.9-13.1-22C349.3,254,351.3,256.4,354.8,258.2z"/>
	<path class="st7" d="M181.2,161.5c0,0,3.9,10.3,9.7,15.4c5.9,5.1,4.9,17.4,32.6,10.3c27.8-7.1,34-12.4,34-12.4s39.5,0,60.2-20.9
		s15.4-19.1,15.4-19.1l-2.2-9.3L181.2,161.5z"/>
	<path class="st14" d="M206.6,622.6c0,0,10.7-7.9,18.6-0.6c7.9,7.3,6.1,24.3,5.1,28.8s-13.6,4.4-19.9,3
		C204,652.4,206.6,622.6,206.6,622.6z"/>
	<path class="st15" d="M197.7,618.4c0,0,14.6-1,15.6,11.8s5.9,24.7-5.5,25.3c-11.5,0.6-15.6-1.6-15.6-1.6L197.7,618.4z"/>
	<path class="st16" d="M310.4,168.9c3.1,3.7,12.6,2.3,26.3-6.9c-0.8-6.5-1.7-12.7-2.5-18.1c-2.4,2.4-4.8,4.6-6.8,6.1
		C316.5,158,305.6,163.1,310.4,168.9z"/>
	<path class="st17" d="M246,77.3c0,0-12.1-1-30.6,0.5s-40.7,9.9-52.6,25.5c-3.8,5.1-12.1,7.3-12.1,7.3l4.3,3l-4.6,0.5
		c0,0,0.8,11.9,6.1,18.2c-5.3-0.3-3.3-0.5-3.3-0.5s14.4,26.6,34.1,31.9c0,0,7.3,14.7,15.7,16.9c8.3,2.3,43.5-4.6,53.6-10.4
		c15.4,2.3,44-5.3,68.5-27.8c-7.1,1.5-9.6,1.5-9.6,1.5s17.4-10.6,20.2-14.7c-7.3,1.5-12.6,1.3-12.6,1.3s14.9-6.3,16.7-9.1
		c-4.3,0-10.9-3-10.9-3l7.1-0.5c0,0-8.1-5.8-12.4-13.9C319.3,96,302.3,76.3,246,77.3z"/>
	<path class="st18" d="M336,118c0,0-8.1-5.8-12.4-13.9c-1.9-3.5-6.1-9.2-14.9-14.4l-0.7,0.2c3.3,4,6.5,7.9,9.3,12.2
		c2.1,3.1,4.5,5.6,6.9,8.5c-3,0.5-5.5-1.4-7.6-2.5c0.9,1.9,3.4,3.8,5.2,4.9c-1.7,0.1-3.5,0-5.2,0.1c-0.3,2.7,7.5,2.6,9.3,4.3
		c-6.5,0.4-16.6,2-21.3,6.9c3.9,0.2,8.2-0.8,12-0.2c-2,1.3-8.5,1.4-8.9,4.1c1.9,0.6,4.1,0.2,6.1,0.3c-1.1,2.4-4.4,2.4-6.2,3.7
		c-1.4,1-2.4,2.7-3.5,3.9c-3.9,4.4-7.5,6.5-13.1,8.3c2.2-0.1,5.4,0.2,7.9-0.4c1.5-0.4,2-1,3.4-1c-3.3,3.2-10.1,5.3-14.4,7
		c-2.1,0.8-6.6,1.1-8,2.9c2.8,1.3,7.6,0.4,10.9,0.4c-1.2,2.8-9.9,3.9-13,4.9c-2.5,0.9-5.4,2-7.7,3c1.9-0.1,6.3,0.7,7.4,1.9
		c-3.5,1.9-8.6,2.1-12.4,3.2c-2.6,0.7-6.7,1.5-8.9,3.1c-1,0.7-1.3,1.3-1.3,1.8c0.6-0.3,1.1-0.6,1.6-0.8c15.4,2.3,44-5.3,68.5-27.8
		c-7.1,1.5-9.6,1.5-9.6,1.5s17.4-10.6,20.2-14.7c-7.3,1.5-12.6,1.3-12.6,1.3s14.9-6.3,16.7-9.1c-4.3,0-10.9-3-10.9-3L336,118z"/>
	<path d="M204.5,102.5c0,0-14.2-10.3-34.2-7.2c-1.9,7-2.4,24.1,17,28.8l17.3-9.1L204.5,102.5z"/>
	<path d="M232.2,105c0,0,35.3-19.7,75.7-6.1c-1,7.9-6.1,35.2-41.8,32.3C245.3,129.5,232.2,105,232.2,105z"/>
	<path class="st0" d="M202.7,180.7c7.4,2,35.5-3.1,49-8.3c0.5-0.3,0.8-0.5,0.8-0.5s-11.9-10.4-18.9-12.2c-2.1-13.3-4.4-29.6-16.3-30
		s-16.6,5.9-16.6,5.9l-16.3-9.8c0,0-11.3,2-11.1,12.5c0.2,10.5,7.4,22.7,13.5,25.5C187.1,163.8,194.4,178.5,202.7,180.7z"/>
	<path class="st19" d="M180.2,130c-0.4-0.4-5.9,3.3-4.8,10.6c1,7.2,6,17,9.3,17.7s10.7-6.2,10.6-10.7S192.3,140,180.2,130z"/>
	<path class="st19" d="M201.1,146.4c0-5,4.3-11.6,12.4-13c8.2-1.4,9.9,1.6,13.6,11.2c3.7,9.5,5.3,18.9-8.1,16
		C205.7,157.6,201.1,149.5,201.1,146.4z"/>
	<path d="M198,140.8c0,0-0.8,5.9,0.6,10.6c-0.1-1.6,0-9,0.9-11.3C198.8,139.8,198,140.8,198,140.8z"/>
	<g>
		<path class="st20" d="M215.1,142.3c0,0.6-0.5,1.1-1.1,1.1s-1.1-0.5-1.1-1.1s0.5-1.1,1.1-1.1C214.6,141.3,215.1,141.7,215.1,142.3z
			"/>
		<path class="st20" d="M225.5,148.5c0,0.6-0.5,1.1-1.1,1.1s-1.1-0.5-1.1-1.1s0.5-1.1,1.1-1.1C225.1,147.4,225.5,147.9,225.5,148.5z
			"/>
		<path class="st20" d="M227.5,138.9c0,0.6-0.5,1.1-1.1,1.1s-1.1-0.5-1.1-1.1s0.5-1.1,1.1-1.1S227.5,138.3,227.5,138.9z"/>
		<path class="st20" d="M235.1,143.8c0,0.6-0.5,1.1-1.1,1.1s-1.1-0.5-1.1-1.1s0.5-1.1,1.1-1.1C234.7,142.7,235.1,143.2,235.1,143.8z
			"/>
		<path class="st20" d="M184.4,148.4c0,0.6-0.5,1.1-1.1,1.1s-1.1-0.5-1.1-1.1s0.5-1.1,1.1-1.1S184.4,147.8,184.4,148.4z"/>
		<path class="st20" d="M188.6,142.7c0,0.6-0.5,1.1-1.1,1.1s-1.1-0.5-1.1-1.1s0.5-1.1,1.1-1.1C188.1,141.7,188.6,142.1,188.6,142.7z
			"/>
		<path class="st20" d="M180.9,136.5c0,0.6-0.5,1.1-1.1,1.1s-1.1-0.5-1.1-1.1s0.5-1.1,1.1-1.1C180.4,135.5,180.9,135.9,180.9,136.5z
			"/>
	</g>
	<path d="M184.3,161.1c2.6-1.3,5-2.8,7.4-4.4c1.2-0.8,2.3-1.7,3.4-2.6c0.5-0.5,1.1-0.9,1.6-1.4s1-1,1.5-1.5l0.2-0.2l0.3,0.2
		c2.1,1.5,4.3,2.9,6.5,4.2s4.5,2.5,6.9,3.6c2.3,1.1,4.8,2,7.2,2.7c2.5,0.7,5,1.2,7.5,1.2c0.6,0,1.3,0,1.9-0.1c0.3,0,0.6-0.1,0.9-0.1
		c0.3-0.1,0.7-0.1,0.9-0.2c1.1-0.4,2.2-1,3.2-1.8c2-1.5,3.8-3.4,5.5-5.3c3.3-4,6.1-8.3,8.7-12.8c-1.1,2.4-2.4,4.6-3.7,6.9
		c-1.3,2.2-2.8,4.4-4.4,6.5c-1.6,2-3.4,4-5.5,5.7c-1.1,0.8-2.2,1.5-3.5,2c-0.3,0.1-0.6,0.2-1,0.3s-0.7,0.1-1,0.2
		c-0.7,0.1-1.3,0.1-2,0.1c-2.7,0-5.3-0.5-7.8-1.2s-5-1.7-7.3-2.8c-2.4-1.1-4.7-2.3-6.9-3.7c-2.2-1.4-4.4-2.9-6.4-4.5h0.5
		c-0.5,0.5-1.1,1-1.6,1.5s-1.1,0.9-1.7,1.4c-1.2,0.9-2.4,1.7-3.6,2.5C189.5,158.5,187,159.9,184.3,161.1z"/>
	<path d="M245.9,141.2c0,0,0.4-0.3,1.1-0.5c0.4-0.1,0.8-0.2,1.3-0.2s1,0.1,1.5,0.2c0.5,0.2,1,0.4,1.3,0.7c0.2,0.1,0.4,0.3,0.5,0.5
		c0.2,0.2,0.3,0.3,0.4,0.5c0.4,0.6,0.5,1.2,0.5,1.1c0,0-0.1-0.1-0.3-0.2c-0.2-0.1-0.4-0.3-0.7-0.5c-0.3-0.2-0.6-0.4-0.9-0.6
		c-0.3-0.2-0.7-0.3-1.1-0.5c-0.4-0.1-0.8-0.2-1.2-0.3c-0.4-0.1-0.8-0.1-1.1-0.2C246.4,141.3,245.9,141.2,245.9,141.2z"/>
	<path class="st21" d="M204.5,102.5c0,0-13.3-9.7-32.1-6.4c-2.1,12.6,2,26.3,15.6,27.3C193.5,120.4,209.4,119.3,204.5,102.5z"/>
	<path class="st22" d="M176.2,95.4c0,0-2.6,21.1,12,21.9c14.6,0.7,14.1-16.2,14.1-16.2S192.1,94.4,176.2,95.4z"/>
	<path class="st17" d="M185.1,125.1c0,0,8.3-10,17.7-10.7c1-11.2,4.2-21.8,9.4-25.6l2.8,26.1L185.1,125.1z"/>
	<path class="st23" d="M212.1,103.1"/>
	<path d="M178.7,95.5c-0.7,4.7-1.6,16.7,7.1,19.6c10.5,3.5,16.7-7,14.7-14.9C196,98,188.4,95.2,178.7,95.5z"/>
	<path class="st24" d="M181.7,108.6c0,1.9-1.6,3.5-3.5,3.5s-3.5-1.6-3.5-3.5s1.6-3.5,3.5-3.5S181.7,106.7,181.7,108.6z"/>
	<path class="st21" d="M232.2,105c0,0,35.2-18.3,71.4-6.3c-1.5,9.5-9.8,31.8-31.5,32.2C244.6,131.5,232.2,105,232.2,105z"/>
	<path class="st22" d="M238.3,102.1c0,0,4,24.2,27.4,18.9c11.5-2.5,19-13.7,15.2-26.4C275.3,94.5,262.4,93.8,238.3,102.1z"/>
	<path d="M273.8,94.7c-13.4,0.5-25.1,3.8-32.6,6.5c0,0.4-0.1,0.7-0.1,1.1c0,9.5,7.7,17.2,17.2,17.2c9.5,0,17.2-7.7,17.2-17.2
		C275.6,99.6,274.9,97,273.8,94.7z"/>
	<path class="st24" d="M281.6,108.8c0-2.9-2.3-5.2-5.2-5.2c-2.9,0-5.2,2.3-5.2,5.2s2.3,5.2,5.2,5.2S281.6,111.7,281.6,108.8z"/>
	<path d="M223.6,107.2c0,0,0-0.4,0-1.1c0-0.7,0-1.7,0.2-2.9s0.4-2.6,0.8-4.1c0.2-0.7,0.5-1.5,0.7-2.3c0.3-0.8,0.6-1.5,1-2.3
		c0.4-0.7,0.7-1.5,1.2-2.2c0.4-0.7,0.9-1.4,1.4-2s0.9-1.2,1.5-1.7c0.5-0.5,1-1,1.5-1.3c0.5-0.4,1-0.7,1.4-1c0.4-0.2,0.8-0.4,1.1-0.6
		c0.6-0.3,1-0.5,1-0.5s-0.3,0.3-0.9,0.7c-0.3,0.2-0.6,0.5-1,0.8c-0.3,0.3-0.7,0.7-1.2,1.1s-0.8,0.9-1.3,1.4s-0.9,1.1-1.3,1.7
		c-0.5,0.6-0.8,1.3-1.2,1.9c-0.4,0.6-0.7,1.4-1.1,2.1c-0.3,0.7-0.7,1.4-1,2.2c-0.3,0.7-0.6,1.4-0.8,2.2c-0.2,0.7-0.5,1.4-0.6,2.1
		c-0.2,0.7-0.3,1.3-0.5,1.9c-0.3,1.2-0.5,2.1-0.6,2.8C223.7,106.8,223.6,107.2,223.6,107.2z"/>
	<path d="M218.7,107.8c0,0-0.4-0.8-0.6-2.1c-0.1-0.7-0.2-1.4-0.2-2.3c0-0.8,0.1-1.7,0.3-2.6c0.2-0.9,0.5-1.7,0.9-2.5
		c0.2-0.4,0.4-0.7,0.6-1s0.4-0.6,0.7-0.9c0.4-0.5,0.8-0.9,1.2-1.1c0.3-0.2,0.5-0.4,0.5-0.4s-0.1,0.2-0.3,0.5
		c-0.1,0.2-0.2,0.3-0.4,0.6c-0.1,0.2-0.3,0.5-0.4,0.8c-0.2,0.3-0.3,0.6-0.4,0.9c-0.2,0.3-0.3,0.7-0.4,1c-0.2,0.4-0.3,0.7-0.4,1.1
		c-0.1,0.4-0.2,0.8-0.3,1.2c-0.1,0.4-0.2,0.8-0.3,1.2c-0.1,0.4-0.1,0.8-0.2,1.2c-0.1,0.8-0.2,1.5-0.2,2.1
		C218.7,106.9,218.7,107.8,218.7,107.8z"/>
	<path class="st7" d="M174,352.4c0,0,8.7,93.8,4.3,114.8c-4.3,20.9,10.7,43.4,11.8,53.7c1.2,10.3,44.2,70.7,45,95.6
		c0,0,6.7-4.7,7.1-14.2C242.7,592.7,174,352.4,174,352.4z"/>
	<path class="st8" d="M228,249.4c0,0,47.8,58.9,50.5,87.3c-2.6-6.3-6.8-9.5-6.8-9.5s5.8,21,6.3,37.9c-3.2-3.7-3.2-3.7-3.2-3.7
		s-1.1,33.1-3.7,61s-3.7,111.5-2.1,140.4s-1.6,43.1,7.4,75.7c-14.2,4.7-32.6,2.1-32.6,2.1s4.2-28.4-20-79.4s-32.6-92-32.6-92
		s-1.6,21-2.1,19.5c-0.5-1.6-2.1-33.7-2.1-33.7s-2.6,12.6-2.6,11s2.1-26.3,2.1-26.3S179.1,365,167.6,333c33.1,36.3,55,25,67.3,11
		C263.2,311.9,228,249.4,228,249.4z"/>
	<path class="st9" d="M269,562.7c-1.6-28.9-0.5-112.5,2.1-140.4s3.7-61,3.7-61s0,0,3.2,3.7c-0.5-16.8-6.3-37.9-6.3-37.9
		s4.2,3.2,6.8,9.5c-2.6-28.4-50.5-87.3-50.5-87.3s35.2,62.6,6.8,94.6c-12.3,13.9-34.2,25.2-67.3-11c3.7,10.3,7,25.1,9.8,40.3
		c0.6,1.6,1.2,3.2,1.7,4.6c2.7,8.2,7.3,15.6,10.2,23.7c2.7,7.6,0.8,16.3,4.3,23.5c0-5.9,1.5-12.3,1.7-18.4c0.4-0.2,0.8-0.2,1.2,0
		c0.4,4.8,2.3,12,5,16c-0.1-2.9-0.2-6,0-8.9c2.4,2.1,4.8,12.4,5.5,16c0.8,4.4,0.8,9.2,1.5,13.6c1.4,8.6,5,23,12.3,28.6
		c0.1-3.3-0.1-6.7,0.2-10c1.7,8.3,1.2,16.4,1.8,24.8c0.4,6.5,1.4,16.5,4.6,21.9c0.4-5.1,0.3-10.2,0.2-15.4c0.2,2.5,0.7,4.8,2.2,6.2
		c0.2-2.9-0.6-6.7,1-9c4.1,8.3,5.2,17.9,5.7,27.1c0.3,5.1,2.1,9.6,3.3,14.6c0.9,3.4,0.8,12.2,3.8,13.9c0.4-1.8,0.1-4.6,2.2-6
		c-1.8-3.9-3-6.2-1.6-10.6c3,0.1,3.8,8.6,4.8,11.3c1.3,3.4,3,7.9,5.9,9.9c0.2-2.6,0-5.3,0.2-7.9c0.6-0.1,1.1-0.1,1.8-0.1
		c2.1,8,2,17.3,3.1,25.6c0.7,5.6,0.3,11.5,0.3,17.2c0,3.7,1.3,8.6,1.4,11.3c0-3.1,1.8-29.7,1.9-32.8c3.5-0.6,4.2,27,6.4,31.1
		C269.5,585.4,269.7,575.5,269,562.7z"/>
	<path class="st25" d="M53.7,613.3c-14.4-7.5-38.1-8.4-45,5.9l3.6-0.8c0,0-9.5,12.5-9.7,19.4c2-2.6,3.8-4.3,3.8-4.3
		s-3.1,11.8,3.8,19.4c6.9,7.7,16.4,17.4,49.3,23.8c33,6.4,32,15.6,63.9,16.1c32,0.5,56.7,1.8,80.5-40.4c-4.1,2.8-9.7,8.7-9.7,8.7
		s9.2-10.7,10-25.3c-0.5,5.1-4.6,9.5-4.6,9.5s10.7-26.6-6.4-49.6s-24.3-14.6-34-4.1s-14.8,25.1-14.8,25.1s3.3-12.3,3.3-18.1
		c-3.3,9.2-9.5,25.1-23,30.7c2-3.6,4.1-10.2,4.1-10.2s-3.8,9.7-17.1,10.2C98.4,629.6,71.8,622.7,53.7,613.3z"/>
	<g class="st26">
		<path class="st27" d="M41,648.8c-0.2-0.9-0.4-1.9-0.7-2.7C40.4,647,40.6,647.9,41,648.8z"/>
		<path class="st27" d="M199.6,645.2c0,0,10.7-26.6-6.4-49.6s-24.3-14.6-34-4.1c-1.1,1.2-2.1,2.4-3.1,3.6c1.8-0.2,3.7-0.4,4.8,0.2
			c2.6,1.3,2.9,5.4,5.4,7c1-1.8,1.7-4.3,2.4-6.2c2.8,5.6,2.4,12.4,4.1,18.4c-0.4-2.9,0.5-8.2,2.5-9.8c2.6,7.8-2.3,17.1-0.6,25.1
			c3.1-2.3,6.1-5.5,8-8.9c-0.7,6.3-2.3,11-5.3,16.6c-1.7,3.3-9,8.9-8.3,12.5c2.7-0.3,5.6-0.8,7.4-3.1c-1.5,2.2-1.2,3.6-3.4,5.3
			c-5.7,4.3-14.9,1.4-21,5.7c1.8,0.6,3.3-0.7,5.4-0.5c-4.7,3.4-8.4,5.4-14.6,5.8c-9.1,0.6-18.7-3.5-27.5-1.8c2.4,4.4,9.9,5,14.2,6.8
			c-7.4,2.5-13.8-0.2-20.6-2.8c-4.1-1.6-16.8-8.7-20.2-6.7c1.2,2.7,4.1,4.8,4.1,7.9c-3.5-1.1-6.9-2.8-10.1-4.4
			c1,2.8,3.9,4.6,6.5,6.3c-7.3-4.1-18.6-4.2-25.8-5.3c-6.1-0.9-19.4-7.4-22.5-14.3c0.5,2.5,0.6,5.2-0.3,7.4
			c-3.9-3.9-4.6-10.5-7.7-14.9c-1.9,4.1-0.5,12.5-0.4,17.3c-8.2-8.4-8.1-20.9-8.8-31.6c-3.1,1.8-2.7,6.5-5.1,8.6
			c-1.4-4.7,1.9-14.9,3.6-19.3c1.4-3.8,3.4-6.5,6.2-8.2c-8.6,0.6-16.3,3.9-19.8,11.1l3.6-0.8c0,0-9.5,12.5-9.7,19.4
			c2-2.6,3.8-4.3,3.8-4.3s-3.1,11.8,3.8,19.4c6.9,7.7,16.4,17.4,49.3,23.8c33,6.4,32,15.6,63.9,16.1c32,0.5,56.7,1.8,80.5-40.4
			c-4.1,2.8-9.7,8.7-9.7,8.7s9.2-10.7,10-25.3C203.7,640.9,199.6,645.2,199.6,645.2z M91.5,669.8c1.8,1.3,3.3,2.6,3.7,4.3
			C94.2,672.4,93,671,91.5,669.8z"/>
	</g>
	<path class="st15" d="M332.5,618.6c0,0,10.3-8,16-5.4s13.5,11.2,12.7,20.5s-7.5,9.5-18.4,8.5C337.5,635,332.5,618.6,332.5,618.6z"
		/>
	<path class="st14" d="M317.1,627c0,0,24.6-21.7,28-6.1c6.1,14.5,1.7,23.1-1.7,23.1c-3.4,0-13,2.6-20.3,0.2
		c-7.3-2.4-4.7-3.9-4.7-9.7C318.3,628.7,317.1,627,317.1,627z"/>
	<path class="st28" d="M307.4,629.9c0,0,12.8-7.5,19.3-0.8s4.1,19,4.7,23.3s-11.3,5.1-14.2,2.4C314.3,652,307.4,629.9,307.4,629.9z"
		/>
	<path class="st29" d="M289.7,633.8c0.8-0.2,11.5-9.1,21.9-4.7c10.5,4.3,7.7,19.9,7.7,24.9c0,3.6-8.1,5.5-20.1,3.6
		C294.6,649.6,289.7,633.8,289.7,633.8z"/>
	<path class="st30" d="M280.8,634.4c8.1-2,18-3.6,20.3,5.7c2.4,9.3,3.8,17.8-2.4,18.8c-6.1,1-23.5,0.1-24.5-8
		C273.3,642.8,280.8,634.4,280.8,634.4z"/>
	<path class="st23" d="M292.1,663.1"/>
	<path class="st30" d="M254.6,636.4c0,0-11.8-3.2-16.8,1c-4.9,4.1-6.7,12-6.5,19.3s3.4,14.4,22.5,10.1
		C255.8,650,254.6,636.4,254.6,636.4z"/>
	<g>
		<path class="st31" d="M194.2,661.1c0,0,9.2-10.7,10-25.3c-0.5,5.1-4.6,9.5-4.6,9.5s10.7-26.6-6.4-49.6s-24.3-14.6-34-4.1
			c-6.3,6.8-10.6,15.3-12.9,20.4c3.2,19.9,42.3,31.1,17,33.2c-22.4,1.8-27.2-15.1-28.2-23.5c-2.9,3.1-6.3,5.8-10.4,7.5
			c1.1-1.9,2.2-4.7,3-6.9c-0.2,0.2-0.4,0.5-0.7,0.7c-23.3,25.3,10.7,55.7-2.8,60.8c-13.4,5.1-26.5-15-29.2-34
			c-1.7-11.6,3.2-18.1,7.2-21.3c-3.2-0.4-6.8-1-10.5-1.9c-18.6,12.3-15,39.8-11,55.7c13.8,5.1,19.8,10,42.8,10.3
			c32,0.5,56.7,1.8,80.5-40.4C199.9,655.2,194.2,661.1,194.2,661.1z"/>
		<path class="st31" d="M146.1,609.6c0.4-2.1,0.9-4.3,1.2-6.4C146.4,605.4,146.1,607.5,146.1,609.6z"/>
		<path class="st31" d="M49.6,638c0.3-13.8,10.4-17.8,17-18.9c-2.1-0.8-4.2-1.7-6.3-2.6c-13.3,4-24.2,15.6-24.9,25.9
			c-0.8,12.2-4.7,20.9-9.9,18.2c-15-32.6,0.3-46.9,10.1-52.4c-11.3-1-22.6,1.9-27,11l3.6-0.8c0,0-9.5,12.5-9.7,19.4
			c2-2.6,3.8-4.3,3.8-4.3s-3.1,11.8,3.8,19.4c6.4,7.1,15,15.9,42.3,22.3C49.3,664.9,49.4,651.1,49.6,638z"/>
		<path class="st32" d="M25.5,660.5c5.1,2.8,9.1-5.9,9.9-18.2c0.7-10.3,11.6-21.9,24.9-25.9c-2.3-1-4.5-2.1-6.6-3.2
			c-5.2-2.7-11.6-4.6-18-5.1C25.8,613.6,10.5,627.8,25.5,660.5z"/>
		<path class="st32" d="M91.7,626.7c-8-1.8-16.9-4.4-25.1-7.6c-6.6,1.1-16.7,5.1-17,18.9c-0.3,13.2-0.3,27,2.9,37.2
			c2.2,0.5,4.6,1,7.1,1.5c9.2,1.8,15.8,3.8,21.1,5.8C76.7,666.5,73.2,639,91.7,626.7z"/>
		<path class="st32" d="M95,649.8c2.8,19,15.8,39.1,29.2,34s-20.5-35.5,2.8-60.8c0.2-0.2,0.4-0.5,0.7-0.7c0.7-1.9,1.1-3.4,1.1-3.4
			s-3.8,9.7-17.1,10.2c-2.7,0.1-5.9-0.1-9.5-0.6C98.2,631.8,93.3,638.2,95,649.8z"/>
		<path class="st32" d="M163.3,645.1c25.3-2-13.8-13.2-17-33.2c-1.3,2.8-1.9,4.6-1.9,4.6s0.9-3.1,1.7-7c0-2.1,0.3-4.2,1.2-6.4
			c0.3-1.8,0.4-3.4,0.4-4.7c-2.3,6.4-6,16-12.6,23.1C136.2,630,141,646.9,163.3,645.1z"/>
	</g>
	<g class="st33">
		<path class="st31" d="M278.5,336.6c-2.6-28.4-50.5-87.3-50.5-87.3s35.2,62.6,6.8,94.6c-12.3,13.9-34.2,25.2-67.3-11
			c11.6,32.1,18.9,106.7,18.9,106.7s-2.1,24.7-2.1,26.3c0,1.6,2.6-11,2.6-11s1.6,32.1,2.1,33.7c0.5,1.6,2.1-19.5,2.1-19.5
			s8.4,41,32.6,92s20,79.4,20,79.4s18.4,2.6,32.6-2.1c-8.9-32.6-5.8-46.8-7.4-75.7c-0.3-5.7-0.5-13.6-0.6-22.8
			c-7.1-3.7-24.7-13.7-34.1-25.9c-12-15.5-17-35.9-4.2-24.9c11.5,9.9,34.1,19.9,38.2,21.7c0.1-16.6,0.4-34.4,0.9-50.1
			c-45-20.8-69-50-64-57.3c4.5-6.5,52.8,22.9,65.1,30.6c0.3-4.5,0.5-8.5,0.8-11.7c0.1-1.3,0.2-2.5,0.3-3.8
			c-9.6-8.6-45.9-44.2-40.1-50.6c5.5-6.1,33.1,12.8,42.2,19.2c0.8-14.8,1.2-25.9,1.2-25.9s0,0,3.2,3.7c-0.5-16.8-6.3-37.9-6.3-37.9
			S275.9,330.3,278.5,336.6z M225,471.3c-21.7-6.3-34.2-31-34-38.3C191.4,420,246.7,477.7,225,471.3z"/>
		<path class="st34" d="M191,433c-0.2,7.3,12.2,32,34,38.3C246.7,477.7,191.4,420,191,433z"/>
		<path class="st34" d="M205.2,403.4c-5,7.3,19,36.4,64,57.3c0.3-10,0.7-19.1,1.1-26.7C258,426.4,209.7,396.9,205.2,403.4z"/>
		<path class="st34" d="M231.4,368c-5.8,6.4,30.5,42,40.1,50.6c0.9-10.6,1.7-21.7,2.2-31.3C264.5,380.7,236.9,361.9,231.4,368z"/>
		<path class="st34" d="M234.3,514c9.4,12.2,27,22.1,34.1,25.9c-0.1-8.8-0.1-18.7-0.1-29.1c-4.2-1.8-26.7-11.7-38.2-21.7
			C217.4,478.1,222.4,498.6,234.3,514z"/>
	</g>
	<g class="st33">
		<path class="st31" d="M365.1,282.7c0,0-106,149.1-96.6,191.1c9.5,42.1,12.6,169.8,12.6,169.8s14.2-6.3,31.5-11
			c-3.6-22.3,15.8-111.2,26.6-157c-7.8,1.3-20.4,2.6-20.4-2.8s16.4-16.6,26.7-23.1c0.1-0.2,0.1-0.4,0.2-0.6c1-3.9,2.5-9.7,4.2-16.1
			c-31.4,13.4-39.9,5.3-34.2,1.2c4.4-3.2,30.4-27.2,43.7-39.5l2.1-10.2l1.1,4.7l2.1-14.2l1.1,5.8c5.3-14.7,8.4-44.7,8.4-44.7
			s1,3.7,1.6,7.4C385.2,308.8,365.1,282.7,365.1,282.7z"/>
		<path class="st34" d="M350,433.1c4.1-16.2,9-35.9,9-35.9l0.5-2.4c-13.2,12.2-39.3,36.3-43.7,39.5
			C310.1,438.4,318.5,446.5,350,433.1z"/>
		<path class="st34" d="M318.9,472.9c0,5.4,12.6,4.1,20.4,2.8c3-12.8,5.4-22.3,6.3-25.9C335.4,456.3,318.9,467.5,318.9,472.9z"/>
	</g>
	<g class="st26">
		<path class="st35" d="M316.5,197.6c-10.9,8-21.8,13.2-17,18.9c4,4.8,19,0.9,40.1-17.7c-0.4-7.4-0.8-15.6-1.5-24
			C331.6,182.8,322.7,193.1,316.5,197.6z"/>
		<g>
			<path class="st31" d="M261.7,251.4c11.9,8,43.4,18.4,55.3,11.1c7.6-5,19.2-19.3,26.8-29.3c-3.2-7.6-5.6-13.2-5.6-13.2
				s1.5,3,5.9,4.4c-5.3-8-3.9-33.5-6.8-57.8c-3-24.3-6.5-44.3-6.5-44.3c-10.9,14.3-120,33.7-152.3,28.4c3,4.5,2.9,12,2.1,24.5
				c10.3,7.4,38.7,26.9,62.4,34.6c29.5,9.6,41.1,8.7,40.4,14.4c-0.6,5.8-28.6,5.8-55.2-4.2c-26.6-9.9-48.1-26.6-48.1-26.6l-0.6-3.7
				c-0.3,4-0.6,8.3-0.8,13.1c0.3-0.5,0.7-1.1,1.1-1.6C198.5,220.1,249.8,243.4,261.7,251.4z"/>
			<path class="st31" d="M282.6,313c22.9,10.3,46.2,21.3,50.9,13.8c4-6.4,22.2-31.5,27.4-53.3c-3.9-7.7-8.3-14.5-10.8-18.2
				c-9.8,15.2-25.8,26.7-31.1,30.2c-7.4,4.8-38.2-5.8-61.3-17.3c-19.6-9.8-66.5-36.5-80.2-44.3c-0.4,5.6-0.9,10.3-1.6,14.3
				c0.9-0.9,1.6-1.5,1.6-1.5S259.7,302.7,282.6,313z"/>
			<path class="st31" d="M354.8,258.2c-0.9-1.9-1.8-3.9-2.7-5.9c-0.5,0.9-1.1,1.9-1.7,2.8C351.5,256.1,352.9,257.2,354.8,258.2z"/>
			<path class="st31" d="M365,311.5c-12.5,19.3-28.9,42.6-36.2,43.7c-12.6,2-87.3-41.5-107.4-60c-18.1-16.7-40.6-35.5-50.7-40.1
				c-1.3,2.6-2.9,5.3-4.8,8.1c-3.4,5.1-7.6,10-11.5,14.2c1.4,6.7,23.5,111.3,20.5,119.7c-3.1,8.4-38.6-61.1-42-93.9
				c-3.6,3.6-6.4,6.2-6.4,6.2l4.7-2.1c-3.6,4.9-7.7,11-12.2,18c6.2,23,25.4,88,52.3,127.5c33.2,48.6,21.3,57.3,17.4,55.3
				C185,506.2,121,442,97.8,360.7c-2.6,4.6-5.2,9.3-7.7,14c5.2,16.4,27.1,79.2,63.9,113.6c42.6,39.9,41.9,45.8,31.2,41.5
				C175.1,525.7,95.8,477,73,409.4c-3.6,8.2-6.7,16-8.9,22.9c-2.5,7.6-4.1,14.8-5.1,21.5c6.8,12.8,34,58.4,85.9,83.1
				c60.8,28.8,26.5,34.7-9.9,20.5c-26.8-10.5-53.9-27.2-72.6-46.3c1.3,10.2,1.3,19.5,1.3,19.5s1.2-3.6,1.8-8.3
				c1.2,9.8,2.1,35.5,2.1,35.5s2.4-3.6,2.4-14.5c0.5,3.5,0.9,7,1.4,10.4c9.4,5.8,52.4,31.9,75.6,34.4c26.1,2.8-14.6,15.8-27.2,15.8
				c-9.4,0-33.6-14-45.6-21.4c0.3,3.8,0.5,7.3,0.6,10.6c0.2-0.2,0.3-0.3,0.3-0.3s0.7,0.4,2,1c0.3-2.3,0.4-4,0.4-4
				c0.1,1.5,0.3,3,0.4,4.4c7.5,3.5,27.9,13,34,13.3c-6.2,2.7-21.2,5.1-33,4.5c0.3,9.5,0.2,16.8,0.7,23.4
				c0.9,11,73.4,22.2,116.4,20.7c39.1,0.6,52.7-79.1,54.2-99.8s60.7-132.1,66.6-142.2s20.7-40,20.7-40s0,3.9,0.3,8
				c5-7.4,8.9-30.8,8.9-30.8s0,5.6-0.6,11.6C359.1,345.9,363.5,324.5,365,311.5z"/>
			<path class="st35" d="M319.1,285.5c5.3-3.5,21.3-14.9,31.1-30.2c-0.7-1.1-1.3-1.9-1.6-2.4c0.3,0.4,0.9,1.2,1.8,2
				c0.6-0.9,1.1-1.8,1.7-2.8c-2.9-6.4-5.9-13.3-8.3-19.1c-7.6,10-19.2,24.3-26.8,29.3c-11.9,7.4-43.4-3-55.3-11.1
				c-11.9-8-63.2-31.3-81.8-50.2c-0.4,0.5-0.8,1.1-1.1,1.6c-0.1,1.4-0.1,2.7-0.2,4.1c-0.3,6.5-0.6,12.1-0.9,16.9
				c13.7,7.8,60.6,34.5,80.2,44.3C280.9,279.8,311.7,290.4,319.1,285.5z"/>
			<path class="st35" d="M228.3,220.1c26.6,9.9,54.5,9.9,55.2,4.2c0.6-5.8-10.9-4.8-40.4-14.4c-23.7-7.7-52.1-27.2-62.4-34.6
				c-0.3,4.3-0.7,9.1-1.1,14.5l0.6,3.7C180.2,193.5,201.7,210.2,228.3,220.1z"/>
			<path class="st35" d="M328.8,355.2c7.3-1.1,23.7-24.4,36.2-43.7c0.8-7,0.7-11.6,0.7-11.6s1.5,2.7,2.4,3.6c-0.3-4.7-3-14.2-3-14.2
				s0.6,1.8,3.3,5.6c-0.8-6.6-3.9-14.4-7.4-21.4c-5.2,21.7-23.4,46.9-27.4,53.3c-4.7,7.5-28-3.6-50.9-13.8
				c-22.9-10.3-105-76.2-105-76.2s-0.6,0.6-1.6,1.5c-1.1,6.7-2.8,11.8-5.3,16.9c10.1,4.6,32.7,23.4,50.7,40.1
				C241.5,313.8,316.2,357.2,328.8,355.2z"/>
			<path class="st35" d="M174.8,397.1c3.1-8.4-19-113-20.5-119.7c-7.2,7.7-13.7,13.1-13.7,13.1s3.3-0.6,7.7-3.6
				c-3.6,4.3-10.5,11.3-15.6,16.3C136.2,336,171.7,405.5,174.8,397.1z"/>
			<path class="st35" d="M188.6,508.1c3.9,2,15.8-6.7-17.4-55.3c-26.9-39.5-46-104.5-52.3-127.5c-6.7,10.3-14,22.5-21.3,35.3
				C120.9,442,184.9,506.2,188.6,508.1z"/>
			<path class="st35" d="M185.1,529.8c10.7,4.3,11.5-1.6-31.2-41.5c-36.8-34.5-58.7-97.2-63.9-113.6c-6.3,11.8-12.2,23.7-17.1,34.7
				C95.6,476.9,174.9,525.7,185.1,529.8z"/>
			<path class="st35" d="M134.9,557.4c36.3,14.2,70.7,8.3,9.9-20.5c-52-24.6-79.1-70.3-85.9-83.1c-3.9,26.1,1.6,44.6,3,53.8
				c0.2,1.2,0.3,2.4,0.5,3.6C81,530.3,108.2,547,134.9,557.4z"/>
			<path class="st35" d="M146.8,588.2c-23.1-2.5-66.2-28.5-75.6-34.4c1.2,10.2,2.1,20.1,2.7,28.8c12,7.3,36.2,21.4,45.6,21.4
				C132.2,604,172.8,591,146.8,588.2z"/>
			<path class="st35" d="M111.6,607.6c-6.1-0.3-26.5-9.8-34-13.3c0.6,6.7,0.8,12.6,1,17.8C90.4,612.7,105.4,610.2,111.6,607.6z"/>
			<path class="st35" d="M74.5,593.2c0.2,3.5,0.3,6.7,0.3,9.4c1-2,1.6-5.8,2-8.7c-1.3-0.6-2-1-2-1S74.8,593.1,74.5,593.2z"/>
		</g>
		<g>
			<path class="st31" d="M365.1,289.3c0,0,0.6,1.8,3.3,5.6c-1.9-16.1-17.4-38.5-19.8-41.9c0.7,1,2.7,3.3,6.2,5.2
				c-7.1-15.4-16.6-38.2-16.6-38.2s1.5,3,5.9,4.4c-2.9-4.4-3.8-13.9-4.5-25.6c-21.1,18.6-36.1,22.5-40.1,17.7
				c-4.8-5.8,6.1-10.9,17-18.9c6.2-4.6,15.1-14.8,21.6-22.8c-0.2-2.7-0.5-5.4-0.8-8.2c-0.2-1.6-0.4-3.2-0.6-4.7
				c-13.7,9.2-23.2,10.6-26.3,6.9c-4.8-5.8,6.1-10.9,17-18.9c2-1.5,4.4-3.6,6.8-6.1c-1.9-12.9-3.4-21.6-3.4-21.6
				c-10.9,14.3-120,33.7-152.3,28.4c5,7.4,1.5,23.4,0,56.3s-3,41.8-12.7,56.3c-9.8,14.5-25.2,27.2-25.2,27.2s3.3-0.6,7.7-3.6
				c-6.2,7.4-21.9,22.5-21.9,22.5l4.7-2.1c-19.3,26.4-55.1,87.4-67.2,125c-12.1,37.6-3.9,63.7-2.1,75.2c1.8,11.6,1.8,23.1,1.8,23.1
				s1.2-3.6,1.8-8.3c1.2,9.8,2.1,35.5,2.1,35.5s2.4-3.6,2.4-14.5c3.3,23.1,4.7,46.2,5,59.2c1.8-3.6,2.4-12.7,2.4-12.7
				c2.1,21.6,1.2,34.7,2.1,45.6c0.9,11,73.4,22.2,116.4,20.7c39.1,0.6,52.7-79.1,54.2-99.8s60.7-132.1,66.6-142.2s20.7-40,20.7-40
				s0,3.9,0.3,8c5-7.4,8.9-30.8,8.9-30.8s0,5.6-0.6,11.6c20.4-26.4,19.8-63.1,19.8-63.1s1.5,2.7,2.4,3.6
				C367.8,298.8,365.1,289.3,365.1,289.3z"/>
		</g>
	</g>
	<path d="M181.9,46c0.4,2.8,0.9,5.6,1.5,8.3c0.5,2.8,1.2,5.5,1.9,8.3c0.3,1.4,0.8,2.7,1.2,4.1c0.4,1.3,0.8,2.7,1.4,4
		c0.3,0.7,0.5,1.3,0.8,2c0.3,0.6,0.6,1.3,0.9,1.9l1,1.8l1.2,1.7l-0.6,0.6c-0.8-0.8-1.6-1.6-2.5-2.4s-1.7-1.6-2.6-2.3
		c-0.9-0.7-1.8-1.4-2.8-1.9c-0.5-0.3-1-0.5-1.5-0.5c-0.5-0.1-0.9,0-1.2,0.4c-0.3,0.3-0.6,0.9-0.6,1.3c0,0.5,0.2,1,0.5,1.4
		c0.6,0.9,1.4,1.8,2.2,2.5c1.7,1.6,3.5,3,5.4,4.2l-0.3,0.5c-1.1-0.5-2.2-0.9-3.3-1.3c-0.3-0.1-0.6-0.1-0.9-0.2
		c-0.3,0-0.6-0.1-0.9-0.1s-0.6,0-0.8,0c-0.3,0.1-0.5,0.2-0.7,0.4l-0.1,0.1L181,81c-0.1,0.2,0,0.2,0,0.4c0.1,0.2,0.3,0.5,0.5,0.7
		c0.4,0.4,0.9,0.7,1.5,1c1.1,0.6,2.2,1,3.3,1.4c-1.2-0.3-2.3-0.7-3.4-1.2c-0.5-0.3-1.1-0.5-1.6-1c-0.2-0.2-0.4-0.5-0.6-0.8
		c0-0.2-0.1-0.4-0.1-0.5v-0.2c0-0.1,0.1-0.2,0.1-0.3c0.2-0.3,0.5-0.5,0.8-0.5c0.3-0.1,0.6-0.1,1-0.1c0.6,0,1.2,0.1,1.8,0.3
		c1.2,0.3,2.3,0.7,3.5,1.2l-0.3,0.5c-2-1.3-3.9-2.6-5.6-4.2c-0.9-0.8-1.7-1.6-2.4-2.7c-0.3-0.5-0.6-1.1-0.6-1.8c0-0.2,0-0.4,0.1-0.6
		l0.1-0.2c0.1-0.1,0.1-0.2,0.1-0.3c0.1-0.3,0.3-0.6,0.5-0.8c0.5-0.5,1.3-0.7,1.9-0.6c0.7,0.1,1.2,0.3,1.8,0.6c1.1,0.6,2,1.3,2.9,2
		c1.8,1.5,3.5,3.1,5.1,4.7l-0.6,0.6l-1.2-1.8l-1-1.9c-0.3-0.6-0.6-1.3-0.9-2c-0.3-0.6-0.5-1.3-0.8-2c-0.2-0.7-0.5-1.3-0.7-2
		s-0.4-1.4-0.6-2c-0.4-1.4-0.7-2.7-1.1-4.1c-0.3-1.4-0.6-2.8-0.9-4.2c-0.3-1.4-0.5-2.8-0.7-4.2C182.5,51.6,182.1,48.8,181.9,46z"/>
	<path d="M314.4,23.7c-0.7,2-1.4,3.9-2,5.9s-1.1,4-1.6,6c-0.2,1-0.5,2-0.7,3.1c-0.2,1-0.4,2-0.6,3.1c-0.2,1-0.4,2.1-0.5,3.1
		c-0.2,1-0.3,2.1-0.4,3.1l-0.3,3.1l-0.2,3.1c-0.1,1-0.1,2.1-0.1,3.1s0,2.1,0,3.1l0.1,3.1c0.1,1,0.2,2.1,0.3,3.1l0.2,1.5
		c0.1,0.5,0.2,1,0.3,1.5l0.6,3.1l0.9,4.6l-1.9-4.3c-1.3-2.9-2.6-5.7-4.1-8.4c-0.4-0.7-0.8-1.4-1.1-2c-0.4-0.7-0.8-1.3-1.2-1.9
		c-0.4-0.6-0.9-1.2-1.4-1.8c-0.5-0.6-1.1-1-1.6-1.3c-0.3-0.1-0.5-0.1-0.8-0.1c-0.1,0-0.2,0.1-0.4,0.2l0,0c-0.1,0.1,0.1-0.1,0.1-0.1
		l0,0l0,0l-0.1,0.1l-0.1,0.1v0.1c-0.2,0.5-0.1,1.3,0,2c0.3,1.5,0.8,2.9,1.4,4.4c1.1,2.9,2.4,5.7,3.9,8.5l-0.9,0.5
		c-1.3-1.7-2.8-3.4-4.4-4.8c-0.8-0.7-1.7-1.3-2.7-1.6c-0.5-0.1-0.9-0.1-1.3,0.1s-0.7,0.6-0.9,1c-0.2,0.4-0.1,0.9,0,1.3
		c0.2,0.5,0.4,0.9,0.8,1.3c0.6,0.9,1.4,1.6,2.3,2.3c1.7,1.4,3.5,2.6,5.5,3.7l1.6,0.9l-1.7-0.3c-2.7-0.5-5.4-1-8.1-1.5
		c-1.3-0.2-2.7-0.5-4.1-0.7c-0.7-0.1-1.4-0.2-2-0.3l-1-0.1c-0.3,0-0.7,0-1,0.1c0.3-0.1,0.7-0.1,1-0.1h1c0.7,0,1.4,0.1,2.1,0.2
		c1.4,0.2,2.7,0.3,4.1,0.5c2.7,0.4,5.4,0.8,8.1,1.3l-0.2,0.5c-2-1.1-3.9-2.3-5.6-3.7c-0.9-0.7-1.7-1.5-2.4-2.4
		c-0.4-0.5-0.7-1-0.9-1.5c-0.2-0.6-0.3-1.3-0.1-1.9c0.2-0.6,0.7-1.1,1.3-1.5c0.6-0.3,1.3-0.3,1.9-0.2c1.2,0.3,2.2,1,3.1,1.7
		c1.8,1.5,3.2,3.2,4.6,5l-0.9,0.5c-1.5-2.8-2.8-5.7-4-8.6c-0.6-1.5-1.1-3-1.4-4.6c-0.1-0.8-0.3-1.6,0-2.7c0.1-0.2,0.2-0.3,0.3-0.4
		l0.1-0.1l0.1-0.1l0,0l0,0l0.1-0.1l0,0c0.2-0.1,0.4-0.3,0.7-0.3c0.5-0.1,1.1-0.1,1.5,0.1c0.9,0.4,1.5,1,2.1,1.6s1,1.3,1.5,1.9
		c0.5,0.7,0.9,1.3,1.3,2s0.8,1.4,1.2,2.1c1.5,2.8,2.8,5.7,4.1,8.5l-1,0.3l-0.6-3.1c-0.1-0.5-0.2-1-0.3-1.6l-0.2-1.6
		c-0.1-1-0.2-2.1-0.3-3.1l-0.1-3.2c-0.1-1.1,0-2.1,0-3.2s0-2.1,0.1-3.2l0.3-3.1l0.4-3.1c0.1-1,0.3-2.1,0.5-3.1s0.3-2.1,0.6-3.1
		c0.2-1,0.4-2.1,0.7-3.1c0.3-1,0.5-2,0.8-3C311.4,31.5,312.7,27.5,314.4,23.7z"/>
	<path class="st36" d="M267.8,635c0,0-12-3-16.8,0.6c-4.7,3.6-4.5,8.5-4.1,16s2.4,17.6,10.1,17.6c7.7,0,8.9-4.1,8.9-4.1L267.8,635z"
		/>
	<path class="st25" d="M274.1,633.4c-5.5-0.2-13.2-0.2-12.6,11.1s0.2,24.5,7.7,23.9s16.4,3,14.8-11.6
		C282.4,642.1,281,633.6,274.1,633.4z"/>
	<path d="M185.1,125.1c0.5-0.7,1.1-1.4,1.7-2c0.6-0.7,1.2-1.3,1.9-1.9c1.3-1.2,2.7-2.3,4.1-3.4c0.7-0.5,1.5-1,2.3-1.4
		c0.8-0.5,1.6-0.8,2.4-1.2l1.3-0.5c0.4-0.2,0.9-0.3,1.3-0.4c0.4-0.1,0.9-0.2,1.3-0.3l1.4-0.2l-0.6,0.5c0.4-4.7,1.2-9.3,2.6-13.8
		c0.4-1.1,0.8-2.2,1.2-3.3c0.5-1.1,1-2.1,1.5-3.2c0.3-0.5,0.6-1,0.9-1.5c0.4-0.5,0.7-1,1.1-1.4c0.4-0.5,0.8-0.9,1.2-1.3
		c0.4-0.4,0.9-0.7,1.4-1.1c-0.4,0.4-0.9,0.8-1.2,1.2c-0.4,0.4-0.7,0.9-1.1,1.4s-0.6,1-0.9,1.5s-0.5,1-0.8,1.5
		c-0.5,1-0.9,2.1-1.3,3.2s-0.7,2.2-1,3.3s-0.6,2.2-0.8,3.4c-0.2,1.1-0.5,2.3-0.7,3.4c-0.2,1.1-0.4,2.3-0.5,3.4
		c-0.2,1.1-0.3,2.3-0.4,3.4v0.5l-0.5,0.1l-1.3,0.2c-0.4,0-0.8,0.2-1.3,0.3c-0.4,0.1-0.8,0.2-1.2,0.3l-1.2,0.4
		c-0.8,0.3-1.6,0.7-2.4,1.1c-0.8,0.4-1.5,0.8-2.3,1.3c-0.7,0.5-1.5,0.9-2.2,1.5c-0.7,0.5-1.4,1.1-2.1,1.6
		C187.6,122.6,186.3,123.8,185.1,125.1z"/>
	<path class="st37" d="M189.1,124.5c-3.6-1,7.4-8.6,14.6-8.8c0.8-4.7,2.2-23.2,9.5-26c1.2-0.5-3.4,2.4-3.9,8.8
		c-0.5,6.4,1.3,14.7,2.3,17.6c-7.1,3.3-2.2,5.6,2.3,7s-5.2-0.3-9.7,1.4C199.7,126.2,198.6,127.1,189.1,124.5z"/>
	<path class="st10" d="M332.4,144.8c0,0,5.7,32.2,4.2,62.4c-2.4-8.5-5-62.9-5-62.9"/>
	<path class="st24" d="M186.5,162.7c0,0,7.8,19.7,21.4,18.4C203.5,180.3,195.7,178.8,186.5,162.7z"/>
	<path class="st38" d="M183.4,125.3c0.5-1.6,8.5,1.8,13.7,1.7s16.2-4.6,17.7-1.5c1.5,3-8.5,7.8-10.8,10.1c-2.4,2.3-3.6,5.2-6.1,5.3
		C195.4,140.9,181.4,132,183.4,125.3z"/>
	<path class="st39" d="M203.9,128.6c-5.1,1.6-11.8,0.3-16.7-0.4c-4.9-0.6-2.5,1.3-1.7,3c0.6,1.3,5.3,5.5,9.7,8.5
		c0.9,0.6,1.9,1,2.7,1.1c2.5-0.1,3.7-3.1,6.1-5.3c0.5-0.5,1.3-1,2.2-1.6c1.7-1.9,4.1-3.8,6.1-5.5C215.3,125.7,209,126.9,203.9,128.6
		z"/>
	<path class="st40" d="M201.6,138.3c0,0,3.2-9.2,5.5-8.7s-3.2,4.6-3.7,5.8C202.9,136.6,201.6,138.3,201.6,138.3z"/>
	<path class="st24" d="M184.5,126.6c0,0-1-1.8,3.3-0.9c4.3,1,7,1.7,10.2,1.6c3.2-0.1-0.1,0.8-2.5,0.7
		C193,128,184.4,125.5,184.5,126.6z"/>
	<path class="st24" d="M185.1,128.3c0.1,0.5,0,0.9-0.3,1c-0.2,0-0.5-0.3-0.6-0.8s0-0.9,0.3-1C184.7,127.4,185,127.8,185.1,128.3z"/>
	<path class="st41" d="M189.8,121.7c0,0,6.4-5.5,13.8-6c0.6-3.6,0.7-6.1,1.1-7.8c-0.1,2.5-0.5,8.5-0.5,8.5
		C201.3,116.6,198.8,116.8,189.8,121.7z"/>
	<path class="st17" d="M198,140.8"/>
	<path class="st37" d="M238,98.9c0,0,36.7-16.2,65.6-3.5C296.5,89.6,281.6,77.9,238,98.9z"/>
	<path class="st37" d="M203.2,100c0,0-20.4-10.9-29.8-6.8c6.6-3.9,10.5-5.8,18.3-0.9C199.5,97.1,203.2,100,203.2,100z"/>
	<path class="st37" d="M199.6,81.4c0,0,45.8-10.7,95.6,2.9C285.9,83.7,232.8,74.4,199.6,81.4z"/>
	<g>
		<path class="st18" d="M153.2,131.9c0,0-0.9,0.1,0.2,0.3C153.2,132,153.2,131.9,153.2,131.9z"/>
		<path class="st18" d="M177.4,159.2c-0.6-0.7-1.2-1.5-1.6-2.2c-1.5-2.3-3.5-4.3-5.4-6.3c-1.1-1.1-2.2-2.4-3.1-3.7
			c-0.6-0.9-1.8-2.1-1.8-3.2c0.9,0.5,1.6,0.6,2.8,0.6c-1.6-1.3-2.8-3.1-4.1-4.7c0.8,0.8,1.8,1.4,2.8,1.3c0-1.1-1.2-2-1.9-2.8
			c-1.2-1.5-2.6-3.4-2.4-5.4c1,0.7,4.5,0.6,5.7,0.1c-0.8-0.9-2.4-1.4-3.5-2.1c-2.2-1.3-4.4-2.8-5.7-5.1c1.5,0.9,5.3,0.8,6.8,0.3
			c-1.4-0.9-4-0.9-4.8-2.5c1-0.1,3.1-0.6,1.4-1.6c-0.5-0.3-2.3-0.4-3-0.5c-1.4-0.3-2.6-0.8-3.9-1.2c1.9,0.1,4.2,0.1,5.9-0.6
			c4.3-1.6-0.5-2-2.5-1.9c1.8-0.4,3.5-2.5,4.7-3.8c-2,0.3-4.1,1.1-6.1,0.8c1.9-1.1,5.6-4.3,5.8-6.6c-1.1,0.4-2.2,0.5-3.4,0.4
			c1-1.6,3.3-2.6,4.6-4c1.4-1.5,2.4-3.8,2.5-5.9c-1.5,1.5-2.9,3.1-4.2,4.8c-3.8,5.1-12.1,7.3-12.1,7.3l4.3,3l-4.6,0.5
			c0,0,0.8,11.9,6.1,18.2c-1.7-0.1-2.6-0.2-3.1-0.2C154.6,134.5,164,150.6,177.4,159.2z"/>
	</g>
	<path class="st42" d="M312.4,3.6c0,0-11.8,1.4-24.1,32.8C292.2,30,299.3,11.8,312.4,3.6z"/>
	<path class="st37" d="M263.4,75.6c0,0,14-25.1,17-30.8c3-5.7,8.3-15.4,8.9-16.6c-2,5.3-17,35.1-19,39.5S265.6,74.6,263.4,75.6z"/>
	<path class="st37" d="M179.8,11c0,0,11.9,15.6,17.9,31.8c8.2,15.6,10,18,10,18s-8.9-12.2-11.8-19.1C193,34.7,182.2,15.6,179.8,11z"
		/>
	<path class="st43" d="M170.9,11.8c0,0-4.7,23.2-1.6,40.2C169.4,44,170.4,15.7,170.9,11.8z"/>
	<g>
		<path class="st10" d="M133.2,491.8c0.1,1.8,0.3,3.6,0.8,5.2C134.1,495.3,133.8,493.5,133.2,491.8z"/>
	</g>
	<path class="st11" d="M255.7,296.3c0.3,8.3,7.1,16.5,9.2,24.6c2.3,8.8,2.2,17.5,2.3,26.7c0.1-4.2-2.8-9.2-4.6-12.7
		c-0.6,7.1,4.3,14.6,5.3,21.7c1,6.8,0.4,14.2,0.4,21.1c0.4-3.4-2.5-7-3.4-10.2c-0.7,9.9-0.1,19.4-1.6,29.2c-0.8,5-1.1,10.2-1.1,15.3
		c0,2.6,0.5,6.5-0.3,8.6c-4-5.5-4.8-15.8-5-22.6c-0.2-4.9,0.2-9.9,0-14.8c-0.3-10.5-2.6-20.5-2.7-31.1c-0.1,4.2,3.1,7.9,3.9,11.7
		c0-5.6-0.3-11.2,0.1-16.8c1.6,1.3,2.1,4.6,3.5,6.6c1-4.2-1-8.3-1.7-12.5s-1.1-8.8-1.5-13c-0.5-5,0-10.4,0-15.4
		c-0.3,4.7,1.7,7.9,3.8,11.6c0.4-5.3,0.5-11.1-1.2-16c-1.3-3.9-4.9-8-4.1-12.4"/>
	<path class="st44" d="M187.2,202.2c-6.8,13.6,2.4,60.2-11.3,72.4c-13.7,12.2-8.9,70.1,24.4,69.5c33.4-0.6,50.4-21.5,27.1-68.9
		C204.2,227.9,206.9,163.2,187.2,202.2z"/>
	<path d="M219.4,133.7c0,0,2.8-0.4,7.7-1c4.9-0.6,11.9-1.5,20.3-2.4c16.8-1.8,39.3-4,61.8-5.4c5.6-0.3,11.3-0.6,16.8-0.8
		s11-0.4,16.3-0.5s10.4-0.1,15.2-0.1c2.4,0,4.8,0.1,7.1,0.1c2.3,0.1,4.5,0.1,6.6,0.2c2.1,0.1,4.1,0.2,6.1,0.3
		c1.9,0.2,3.7,0.3,5.5,0.4c3.4,0.3,6.4,0.6,8.8,1c1.2,0.2,2.3,0.3,3.3,0.5c0.9,0.2,1.7,0.3,2.4,0.5c1.3,0.2,2,0.4,2,0.4
		s-0.7-0.1-2-0.4c-0.7-0.1-1.5-0.3-2.4-0.4c-0.9-0.2-2-0.3-3.3-0.5c-2.4-0.4-5.4-0.6-8.8-0.9c-1.7-0.1-3.5-0.2-5.5-0.4
		c-1.9-0.1-3.9-0.2-6.1-0.3c-2.1-0.1-4.3-0.1-6.6-0.2c-2.3,0-4.6-0.1-7.1-0.1c-4.8,0-9.9,0-15.2,0.2c-10.6,0.3-21.8,0.8-33.1,1.5
		c-22.5,1.3-44.9,3.4-61.8,5.1c-8.4,0.9-15.4,1.6-20.3,2.2C222.2,133.4,219.4,133.7,219.4,133.7z"/>
	<path d="M215.6,138.5c0,0,3.2-0.5,8.9-1.3c5.6-0.7,13.7-1.7,23.4-2.5c4.9-0.4,10.1-0.8,15.7-1.2c5.6-0.3,11.5-0.7,17.6-0.9
		c6.1-0.3,12.4-0.4,18.8-0.5c3.2,0,6.4,0,9.7,0c3.2,0.1,6.5,0.1,9.7,0.2c6.5,0.2,13,0.5,19.4,0.9c3.2,0.2,6.4,0.4,9.5,0.7
		c1.6,0.1,3.1,0.3,4.7,0.4c1.5,0.2,3.1,0.3,4.6,0.5c3,0.3,6,0.6,8.9,1c1.5,0.2,2.9,0.4,4.3,0.5c1.4,0.2,2.8,0.4,4.2,0.6
		c1.4,0.2,2.7,0.4,4.1,0.6c1.3,0.2,2.7,0.5,4,0.7c2.6,0.5,5.1,0.9,7.5,1.4s4.7,0.9,6.9,1.4s4.2,1,6.2,1.4c3.9,0.9,7.2,1.9,9.9,2.6
		c5.5,1.6,8.6,2.6,8.6,2.6s-3.1-0.9-8.6-2.5c-2.8-0.7-6.1-1.6-10-2.5c-1.9-0.4-4-0.9-6.2-1.4c-2.2-0.4-4.5-0.9-6.9-1.4
		s-4.9-0.9-7.5-1.3c-1.3-0.2-2.6-0.4-4-0.7c-1.3-0.2-2.7-0.4-4.1-0.6c-1.4-0.2-2.8-0.4-4.2-0.6c-1.4-0.2-2.9-0.4-4.3-0.5
		c-2.9-0.4-5.9-0.7-8.9-1c-1.5-0.2-3-0.3-4.6-0.5c-1.5-0.1-3.1-0.2-4.7-0.4c-3.1-0.3-6.3-0.5-9.5-0.7c-6.4-0.4-12.9-0.6-19.4-0.8
		c-3.2-0.1-6.5-0.1-9.7-0.2c-3.2,0-6.5,0-9.7,0c-6.4,0-12.7,0.2-18.8,0.4c-6.1,0.2-12,0.5-17.6,0.8c-5.6,0.4-10.8,0.7-15.7,1.1
		c-9.7,0.8-17.8,1.7-23.5,2.3C218.8,138,215.6,138.5,215.6,138.5z"/>
	<path d="M218.6,145.1c0,0,2.9-0.4,8.1-0.8c5.1-0.5,12.5-1,21.4-1.3c4.4-0.2,9.2-0.3,14.3-0.3c5.1,0,10.4,0,16,0.2
		c5.5,0.1,11.3,0.4,17.1,0.8c5.8,0.4,11.7,0.9,17.6,1.5l4.4,0.5c1.5,0.2,2.9,0.4,4.4,0.6c2.9,0.4,5.8,0.8,8.7,1.3
		c5.8,0.9,11.4,1.9,16.8,3s10.6,2.3,15.6,3.6c2.5,0.6,4.8,1.3,7.1,1.9c2.3,0.6,4.5,1.3,6.6,2c4.3,1.3,8.1,2.7,11.5,3.9
		c3.4,1.3,6.3,2.4,8.7,3.4c4.8,2,7.5,3.2,7.5,3.2s-2.7-1.1-7.5-3.1c-2.4-0.9-5.4-2-8.7-3.3c-3.4-1.1-7.2-2.5-11.5-3.7
		c-2.1-0.7-4.3-1.3-6.6-1.9c-2.3-0.6-4.7-1.3-7.1-1.9c-4.9-1.2-10.1-2.4-15.6-3.5c-5.4-1.1-11.1-2.1-16.8-2.9
		c-2.9-0.4-5.8-0.9-8.7-1.2c-1.5-0.2-2.9-0.4-4.4-0.6l-4.4-0.5c-5.9-0.7-11.8-1.2-17.5-1.6c-5.8-0.4-11.5-0.7-17-0.9
		s-10.9-0.2-16-0.3c-5.1,0-9.9,0.1-14.3,0.2c-8.9,0.3-16.2,0.7-21.4,1.1C221.5,144.8,218.6,145.1,218.6,145.1z"/>
	<path d="M224.5,151.1c0,0,2.3,0.2,6.2,0.5c3.9,0.3,9.6,0.8,16.3,1.6c13.5,1.4,31.5,3.7,49.3,6.6c4.5,0.7,8.9,1.6,13.3,2.4
		c4.4,0.8,8.7,1.7,12.8,2.6c4.1,0.9,8.1,1.9,11.9,2.8c3.8,1,7.3,2,10.6,2.9c1.6,0.5,3.2,1,4.6,1.5c1.5,0.5,2.8,1,4.2,1.4
		c2.6,1,4.8,1.8,6.6,2.6c1.8,0.8,3.2,1.5,4.2,1.9c1,0.5,1.5,0.7,1.5,0.7s-0.5-0.2-1.5-0.7c-1-0.4-2.4-1.1-4.2-1.9
		c-1.8-0.8-4.1-1.6-6.7-2.5s-5.6-1.8-8.8-2.8c-3.3-1-6.8-1.9-10.6-2.9c-3.8-0.9-7.8-1.9-11.9-2.8c-4.1-0.9-8.4-1.7-12.8-2.6
		c-4.4-0.8-8.8-1.6-13.3-2.3c-17.8-3-35.8-5.3-49.3-6.9c-6.7-0.8-12.4-1.4-16.3-1.8C226.7,151.4,224.5,151.1,224.5,151.1z"/>
	<path class="st45" d="M177.3,582.9c0,0,26.8,18.5,22.8,47.4C198.6,620.2,197.5,601.4,177.3,582.9z"/>
	<path class="st45" d="M57.7,589.7c0,0-38.9,15.5-43.4,26.6C20.7,609.9,38.7,599.9,57.7,589.7z"/>
	<path class="st45" d="M61.4,618.1c0,0,45.2,21.7,63.6,6.9C119.2,631.6,99.2,640.7,61.4,618.1z"/>
	<path class="st45" d="M125.1,629.9c0,0,16.2-8,20.5-23.9C144.9,614,142.8,628.6,125.1,629.9z"/>
	<path class="st46" d="M127.2,317.8c0,0-68.1,101.8-67.3,147.5C66.7,434.8,99.8,365.3,127.2,317.8z"/>
	<path class="st46" d="M359.4,394.7c0,0-54.1,182-49.1,228.9C303.9,600.7,317.8,511.5,359.4,394.7z"/>
	<path class="st46" d="M265.8,454.1c0,0-3.4,153.9,6.8,175C262.4,614.3,258.5,559.8,265.8,454.1z"/>
	<path d="M182.1,129.6c0,0-1.9-0.4-5.1-1s-7.9-1.4-13.5-2.4c-2.8-0.5-5.8-1-9-1.5s-6.6-1-10.1-1.6c-3.5-0.5-7.1-1-10.8-1.5
		c-3.7-0.5-7.4-0.9-11.2-1.4c-3.8-0.4-7.5-0.9-11.2-1.3c-3.7-0.3-7.3-0.7-10.9-1c-3.5-0.2-6.9-0.5-10.2-0.7
		c-3.2-0.2-6.3-0.3-9.1-0.4c-2.8-0.1-5.4-0.1-7.7-0.2c-2.3-0.1-4.3,0-6,0c-3.3,0-5.2,0.1-5.2,0.1s1.9-0.1,5.2-0.2
		c1.7,0,3.7-0.2,6-0.1c2.3,0,4.9,0,7.7,0.1s5.9,0.2,9.2,0.4c3.2,0.2,6.7,0.4,10.2,0.7s7.2,0.6,10.9,0.9c3.7,0.4,7.5,0.8,11.2,1.2
		c3.8,0.5,7.5,0.9,11.2,1.5c3.7,0.5,7.3,1,10.8,1.6c3.5,0.5,6.9,1.1,10.1,1.6s6.2,1.1,9,1.6C174.7,127.9,182.1,129.6,182.1,129.6z"
		/>
	<path d="M179.9,133.4c0,0-2.3-0.1-6.4-0.3s-9.9-0.3-17-0.6c-7-0.2-15.2-0.4-24-0.5c-4.4,0-8.9-0.1-13.5-0.1s-9.3,0-14,0.1
		c-2.3,0-4.7,0.1-7,0.1c-2.3,0.1-4.6,0.1-7,0.2c-4.6,0.1-9.1,0.3-13.5,0.5s-8.6,0.5-12.6,0.8c-4,0.2-7.8,0.7-11.3,1
		s-6.7,0.8-9.5,1.1c-1.4,0.2-2.7,0.4-4,0.5c-1.2,0.2-2.3,0.4-3.3,0.6c-4,0.7-6.3,1.2-6.3,1.2s2.3-0.5,6.3-1.3c1-0.2,2.1-0.4,3.3-0.7
		c1.2-0.2,2.5-0.4,4-0.6c2.8-0.4,6-1,9.5-1.2c3.5-0.3,7.3-0.8,11.3-1.1s8.2-0.7,12.6-0.8c4.4-0.2,8.9-0.5,13.5-0.6
		c2.3-0.1,4.6-0.1,7-0.2c2.3,0,4.7-0.1,7-0.1c4.7-0.1,9.4-0.1,14,0c4.6,0,9.1,0.1,13.5,0.1c8.8,0.1,17,0.4,24,0.6
		c7,0.2,12.9,0.6,17,0.8C177.5,133.2,179.9,133.4,179.9,133.4z"/>
	<path d="M184.6,140.4c0,0-2,0.1-5.6,0.3c-1.8,0.1-4,0.3-6.5,0.4c-2.5,0.2-5.3,0.4-8.4,0.6c-3.1,0.3-6.4,0.5-9.9,0.8
		c-3.5,0.4-7.2,0.7-11,1.1c-3.8,0.4-7.8,0.8-11.8,1.4c-2,0.3-4,0.5-6,0.8s-4.1,0.6-6.1,0.9c-4.1,0.5-8.1,1.2-12.1,1.8
		s-7.9,1.4-11.7,2.1c-3.8,0.7-7.4,1.6-10.8,2.3c-3.4,0.8-6.7,1.7-9.6,2.4c-1.5,0.3-2.9,0.8-4.2,1.2s-2.6,0.8-3.8,1.1
		c-1.2,0.4-2.3,0.7-3.3,1c-1,0.4-1.9,0.7-2.8,1c-3.4,1.2-5.3,1.9-5.3,1.9s1.9-0.7,5.3-2c0.8-0.3,1.8-0.7,2.8-1.1
		c1-0.4,2.1-0.7,3.3-1.1c2.4-0.7,5.1-1.7,8-2.4c3-0.8,6.2-1.7,9.6-2.5c3.4-0.7,7.1-1.6,10.8-2.3c3.8-0.7,7.7-1.5,11.7-2.1
		s8-1.4,12.1-1.9c2-0.3,4.1-0.6,6.1-0.8s4.1-0.5,6.1-0.7c4-0.5,8-0.9,11.8-1.3c3.8-0.4,7.5-0.7,11-1s6.8-0.5,9.9-0.8
		c6.1-0.4,11.3-0.7,14.9-0.8C182.6,140.5,184.6,140.4,184.6,140.4z"/>
	<path d="M180.7,145.6c0,0-1.1,0.2-3,0.7c-1.9,0.4-4.6,1.1-7.9,1.9c-3.2,0.8-7,1.9-11,3.1c-2,0.6-4.1,1.2-6.2,1.9s-4.2,1.4-6.3,2.1
		c-2.1,0.8-4.2,1.4-6.3,2.2c-2,0.8-4.1,1.5-6,2.4c-1.9,0.8-3.8,1.5-5.5,2.4c-1.7,0.8-3.4,1.5-4.9,2.3c-1.5,0.7-2.9,1.4-4.1,2
		s-2.2,1.2-3.1,1.7c-1.7,0.9-2.7,1.5-2.7,1.5s1-0.6,2.6-1.6c0.8-0.5,1.8-1.1,3-1.8c1.2-0.6,2.6-1.4,4-2.1c1.5-0.8,3.1-1.5,4.9-2.4
		c1.7-0.9,3.6-1.6,5.5-2.4c1.9-0.8,4-1.6,6-2.4c2-0.8,4.2-1.5,6.3-2.3c2.1-0.7,4.2-1.4,6.3-2.1c2.1-0.6,4.2-1.3,6.2-1.8
		c4-1.2,7.8-2.1,11.1-2.9C176.3,146.3,180.7,145.6,180.7,145.6z"/>
</g>
</svg>
