<?xml version="1.0" encoding="utf-8"?>
<!-- Generator: Adobe Illustrator 25.0.1, SVG Export Plug-In . SVG Version: 6.00 Build 0)  -->
<svg version="1.1" id="Calque_1" xmlns="http://www.w3.org/2000/svg" xmlns:xlink="http://www.w3.org/1999/xlink" x="0px" y="0px"
	 viewBox="0 0 1280 189.9" style="enable-background:new 0 0 1280 189.9;" xml:space="preserve">
<style type="text/css">
	.st0{opacity:0.6;}
	.st1{fill:#18222B;}
</style>
<g transform="translate(0.000000,640.000000) scale(0.100000,-0.100000)" class="st0">
	<path class="st1" d="M18096,8174.5c-16.9-43.5-36.2-140.1-45.9-212.5c-16.9-140.1-43.5-176.3-111.1-154.6
		c-38.6,12.1-43.5-4.8-43.5-123.2c0-115.9-7.2-140.1-48.3-149.7c-33.8-9.7-48.3-33.8-48.3-82.1c0-38.6-12.1-70-26.6-70
		c-19.3,0-21.7-152.2-9.7-531.4l19.3-531.4h-74.9c-58,0-74.9-12.1-87-60.4c-38.6-149.7-58-21.7-72.5,490.3
		c-9.7,301.9-29,553.1-41.1,555.5c-12.1,4.8-21.7,29-21.7,55.6c0,26.6-26.6,89.4-60.4,142.5s-60.4,123.2-60.4,154.6
		c0,45.9-14.5,60.4-65.2,67.6c-55.6,4.8-70,21.7-74.9,79.7c-4.8,41.1-16.9,84.5-29,96.6c-9.7,14.5-26.6,70-36.2,128
		c-21.7,135.3-53.1,128-74.9-12.1c-7.2-65.2-26.6-130.4-38.6-144.9c-14.5-16.9-16.9-58-9.7-91.8c12.1-43.5,4.8-60.4-19.3-60.4
		c-19.3,0-41.1-14.5-45.9-29c-9.7-24.2-14.5-24.2-14.5,0c-2.4,14.5-12.1,29-26.6,29c-12.1,0-24.2-58-24.2-130.4
		c0-111.1-7.2-135.3-48.3-147.3c-31.4-9.7-48.3-36.2-48.3-72.5c0-31.4-12.1-65.2-26.6-74.9c-19.3-12.1-24.2-176.3-9.7-603.8
		l16.9-589.3l-62.8-26.6c-33.8-16.9-67.6-48.3-74.9-74.9c-9.7-24.2-26.6-43.5-38.6-43.5s-21.7-26.6-21.7-60.4s-9.7-60.4-24.2-60.4
		c-14.5,0-24.2-103.9-24.2-263.3c0-280.2-33.8-374.4-60.4-171.5c-9.7,65.2-26.6,125.6-38.6,135.3c-12.1,7.2-21.7,77.3-21.7,157
		c0,135.3-2.4,142.5-60.4,142.5c-48.3,0-60.4,12.1-60.4,58c0,67.6-50.7,87-243.9,87c-149.7,0-166.7,16.9-166.7,183.6
		c0,96.6-103.9,176.3-173.9,132.8c-24.2-14.5-60.4-26.6-79.7-26.6c-26.6,0-36.2-26.6-36.2-101.4c0-132.8-77.3-212.5-202.9-212.5
		c-77.3,0-87-7.2-87-60.4c0-36.2-14.5-60.4-36.2-60.4c-24.2,0-36.2-38.6-41.1-149.7c-7.2-132.8-14.5-152.2-58-159.4
		c-41.1-4.8-55.6-29-65.2-111.1c-24.2-171.5-55.6-231.9-125.6-231.9c-55.6,0-60.4-9.7-60.4-108.7v-106.3l-99,33.8
		c-55.6,19.3-120.8,36.2-144.9,36.2c-33.8,0-45.9,16.9-45.9,70c0,38.6-12.1,74.9-26.6,79.7c-12.1,4.8-29,55.6-36.2,115.9
		c-16.9,140.1-41.1,181.1-130.4,217.4c-38.6,16.9-72.5,45.9-72.5,62.8c0,45.9-38.6,43.5-58-4.8c-21.7-55.6-157-26.6-212.5,45.9
		l-43.5,53.1l-50.7-60.4c-33.8-41.1-53.1-50.7-62.8-29c-4.8,14.5-21.7,29-33.8,29c-41.1,0-120.8,99-135.3,169.1
		c-16.9,84.5-55.6,72.5-55.6-19.3c-2.4-101.4-77.3-173.9-173.9-169.1c-43.5,2.4-144.9-4.8-227-14.5l-147.3-19.3l-14.5,222.2
		c-9.7,123.2-16.9,272.9-16.9,330.9c0,87-7.2,103.9-48.3,103.9c-38.6,0-48.3,16.9-48.3,82.1c0,74.9-7.2,82.1-84.5,96.6
		c-94.2,19.3-181.1,0-181.1-36.2c0-12.1-16.9-21.7-36.2-21.7c-26.6,0-36.2-29-36.2-120.8s-9.7-120.8-36.2-120.8
		c-19.3,0-36.2-21.7-36.2-48.3c0-26.6-9.7-48.3-24.2-48.3c-12.1,0-24.2-21.7-24.2-48.3c0-26.6-9.7-48.3-24.2-48.3
		c-12.1,0-24.2-21.7-24.2-48.3c0-26.6-9.7-48.3-24.2-48.3c-12.1,0-24.2-16.9-24.2-36.2c0-24.2-26.6-36.2-84.5-36.2
		c-67.6,0-84.5,9.7-84.5,48.3c0,26.6-9.7,48.3-24.2,48.3c-12.1,0-24.2,43.5-24.2,94.2c0,103.9-31.4,120.8-173.9,101.4
		c-58-7.2-67.6-19.3-67.6-89.4c0-77.3-4.8-82.1-87-82.1c-65.2,0-89.4-12.1-99-48.3c-12.1-41.1-33.8-48.3-154.6-48.3
		c-79.7,0-142.5,9.7-142.5,21.7c0,12.1-31.4,26.6-70,31.4c-53.1,7.2-74.9,0-82.1-31.4c-9.7-31.4-41.1-45.9-115.9-50.7
		c-89.4-4.8-108.7-16.9-113.5-60.4c-4.8-31.4-19.3-55.6-31.4-55.6s-21.7-19.3-21.7-41.1c0-31.4-7.2-33.8-29-12.1
		c-19.3,19.3-50.7,2.4-120.8-74.9c-89.4-96.6-96.6-99-128-55.6c-41.1,55.6-108.7,33.8-108.7-33.8c0-55.6-29-58-270.5-24.2
		c-161.8,24.2-234.3,65.2-268.1,152.2c-7.2,21.7-31.4,41.1-53.1,41.1c-26.6,0-36.2,29-36.2,118.3v118.3l-89.4,12.1
		c-50.7,4.8-101.4,0-115.9-12.1c-24.2-21.7-26.6-29-31.4-135.3l-4.8-58l-79.7,50.7c-79.7,48.3-82.1,48.3-164.2,4.8
		c-72.5-38.6-82.1-55.6-89.4-154.6c-4.8-87-16.9-111.1-58-120.8c-33.8-9.7-62.8,0-82.1,26.6c-21.7,31.4-36.2,33.8-62.8,9.7
		c-26.6-21.7-41.1-21.7-65.2,2.4c-24.2,21.7-38.6,16.9-67.6-24.2c-43.5-62.8-99-72.5-118.3-19.3c-21.7,55.6-82.1,43.5-82.1-16.9
		c-2.4-58-108.7-154.6-130.4-118.3c-7.2,12.1-36.2,16.9-60.4,9.7c-24.2-7.2-53.1,0-60.4,14.5c-21.7,31.4-87,7.2-87-33.8
		c0-16.9,14.5-38.6,31.4-43.5c14.5-7.2-38.6-14.5-120.8-14.5c-147.3-2.4-152.2,0-152.2,58c0,62.8-55.6,84.5-84.5,33.8
		c-9.7-14.5-29-19.3-45.9-14.5c-16.9,7.2-55.6-9.7-89.4-33.8c-62.8-48.3-118.3-60.4-118.3-21.7c0,14.5-16.9,24.2-36.2,24.2
		s-36.2-16.9-36.2-36.2c0-60.4-72.5-41.1-96.6,24.2c-19.3,53.1-33.8,58-89.4,45.9c-36.2-9.7-84.5-38.6-106.3-65.2
		c-45.9-60.4-118.3-41.1-118.3,31.4c0,26.6-16.9,48.3-36.2,48.3c-24.2,0-36.2-24.2-36.2-72.5c0-72.5-2.4-72.5-132.8-72.5
		c-99,0-135.3-9.7-154.6-41.1c-31.4-53.1-29-60.4-41.1,173.9c-19.3,355-26.6,374.4-181.1,374.4c-89.4,0-118.3-9.7-118.3-36.2
		c0-19.3-9.7-36.2-24.2-36.2c-12.1,0-24.2-14.5-24.2-29c0-21.7-48.3-31.4-157-33.8H6522l-7.2,96.6l-7.2,99l-113.5,7.2l-113.5,7.2
		l-7.2-115.9c-7.2-113.5-7.2-113.5-91.8-115.9c-72.5,0-84.5-9.7-91.8-65.2c-9.7-72.5-62.8-128-101.4-103.9
		c-12.1,7.2-24.2,62.8-24.2,120.8s-12.1,135.3-26.6,173.9c-14.5,36.2-31.4,115.9-36.2,176.3c-7.2,58-21.7,118.3-33.8,130.4
		c-14.5,14.5-24.2,48.3-24.2,79.7c0,31.4-9.7,55.6-21.7,55.6c-55.6,0-99-33.8-99-77.3c0-26.6-19.3-53.1-48.3-60.4
		c-26.6-7.2-48.3-33.8-48.3-58c0-26.6-16.9-45.9-36.2-45.9c-33.8,0-45.9-33.8-43.5-113.5c2.4-16.9-7.2-31.4-16.9-31.4
		c-38.6,0-72.5-154.6-72.5-318.8c0-115.9-12.1-178.7-36.2-202.9c-53.1-53.1-84.5-19.3-84.5,89.4v94.2h-132.8h-132.8v-84.5
		c0-50.7-19.3-106.3-45.9-135.3c-43.5-48.3-45.9-48.3-70-4.8c-24.2,41.1-29,41.1-58,2.4c-33.8-43.5-123.2-58-205.3-31.4
		c-36.2,12.1-55.6,38.6-60.4,94.2c-7.2,70-12.1,74.9-103.9,74.9s-96.6-4.8-103.9-77.3c-4.8-43.5-16.9-79.7-26.6-79.7
		c-24.2,0-50.7,84.5-50.7,164.2c0,36.2-14.5,53.1-48.3,53.1c-26.6,0-48.3,14.5-48.3,31.4c0,14.5-12.1,70-26.6,120.8
		c-21.7,82.1-29,89.4-89.4,72.5c-36.2-9.7-86.9-14.5-113.5-12.1c-24.2,0-60.4-9.7-77.3-24.2c-21.7-19.3-31.4-16.9-31.4,4.8
		c0,21.7-7.2,24.2-33.8,2.4c-41.1-33.8-62.8,12.1-62.8,128c0,94.2-94.2,200.5-137.7,157c-19.3-19.3-45.9-9.7-94.2,41.1l-67.6,70
		l-53.1-53.1c-33.8-33.8-58-96.6-67.6-186l-16.9-135.3l-96.6,12.1c-55.6,7.2-94.2,2.4-94.2-12.1c0-12.1-14.5-24.2-33.8-24.2
		c-21.7,0-36.2,38.6-43.5,118.3c-7.2,82.1-31.4,142.5-74.9,195.6c-36.2,41.1-65.2,62.8-65.2,43.5c0-16.9-19.3-43.5-45.9-60.4
		c-33.8-21.7-48.3-70-62.8-210.1c-9.7-101.4-26.6-183.6-38.6-183.6s-21.7-31.4-21.7-70c0-60.4-9.7-72.5-65.2-79.7
		c-67.6-7.2-67.6-9.7-82.1-212.5c-7.2-113.5-14.5-190.8-16.9-173.9c-14.5,94.2-173.9,142.5-173.9,53.1c0-38.6-16.9-48.3-72.5-48.3
		c-60.4,0-72.5,9.7-72.5,60.4c0,50.7-12.1,60.4-72.5,60.4c-58,0-72.5-9.7-72.5-53.1c0-48.3-12.1-55.6-94.2-53.1
		c-113.5,2.4-147.3,21.7-147.3,84.5c0,65.2-120.8,65.2-137.7-2.4c-16.9-67.6-77.3-60.4-103.9,12.1c-31.4,82.1-113.5,79.7-152.2-4.8
		c-26.6-65.2-29-60.4-36.2,72.5c-7.2,130.4-12.1,137.7-67.6,137.7c-60.4,0-62.8,2.4-53.1,161.8l7.2,161.8l-74.9,19.3
		c-38.6,9.7-120.8,9.7-181.1,0c-106.3-19.3-106.3-19.3-106.3-120.8c-2.4-55.6-14.5-113.5-31.4-130.4c-21.7-21.7-29-12.1-29,50.7
		c0,115.9-38.6,171.5-120.8,171.5c-62.8,0-72.5,9.7-72.5,62.8c0,53.1-7.2,60.4-77.3,53.1c-58-4.8-82.1-21.7-91.8-62.8
		c-7.2-29-38.6-67.6-72.5-84.5c-55.6-29-62.8-45.9-82.1-289.8l-19.3-258.4h-70c-38.6,0-70-9.7-70-24.2c0-12.1-9.7-24.2-24.2-24.2
		c-14.5,0-24.2,65.2-24.2,144.9c0,113.5-7.2,144.9-36.2,144.9s-36.2-33.8-36.2-157s-7.2-157-36.2-157c-43.5,0-43.5-4.8-36.2,507.2
		c4.8,429.9-7.2,531.4-67.6,531.4c-19.3,0-58,16.9-82.1,41.1c-41.1,36.2-45.9,36.2-87,0c-24.2-24.2-58-41.1-77.3-41.1
		c-55.6,0-94.2-82.1-96.6-207.7c0-67.6-7.2-239.1-16.9-379.2c-14.5-243.9-16.9-258.4-67.6-258.4c-26.6,0-62.8-12.1-79.7-29
		c-19.3-19.3-36.2-19.3-62.8,4.8c-21.7,16.9-31.4,38.6-24.2,50.7c7.2,12.1-21.7,21.7-60.4,21.7c-41.1,0-74.9,12.1-74.9,26.6
		c0,16.9-33.8,24.2-84.5,16.9c-53.1-4.8-87,2.4-94.2,21.7c-7.2,16.9-45.9,31.4-89.4,31.4c-53.1,0-77.3-12.1-87-48.3
		c-9.7-41.1-33.8-48.3-140.1-48.3h-125.6l12.1,442l12.1,439.6l-82.1,31.4c-53.1,19.3-84.5,21.7-89.4,4.8
		c-4.8-12.1-50.7-24.2-101.4-24.2c-72.5,0-101.4-12.1-120.8-50.7c-16.9-26.6-33.8-43.5-41.1-36.2c-26.6,24.2-103.9-36.2-103.9-79.7
		c0-26.6-16.9-50.7-33.8-58c-19.3-7.2-43.5-53.1-53.1-101.4c-21.7-113.5-45.9-84.5-87,106.3l-33.8,152.2l-58-171.5
		c-62.8-186-96.6-236.7-96.6-137.7c0,33.8-9.7,62.8-24.2,62.8c-12.1,0-24.2,29-26.6,67.6c0,36.2-9.7,87-19.3,113.5
		c-16.9,38.6-24.2,24.2-38.6-65.2c-9.7-65.2-26.6-115.9-38.6-115.9s-21.7-19.3-21.7-45.9c0-24.2-16.9-58-36.2-74.9
		c-19.3-16.9-36.2-45.9-36.2-62.8c0-19.3-21.7-55.6-45.9-79.7c-45.9-45.9-48.3-45.9-89.4,41.1l-41.1,89.4l-31.4-77.3
		c-19.3-41.1-43.5-82.1-58-91.8c-12.1-7.2-24.2-43.5-24.2-77.3c0-36.2-16.9-65.2-43.5-72.5c-24.2-4.8-58-41.1-74.9-82.1
		c-16.9-38.6-41.1-70-55.6-70c-31.4,0-91.8-62.8-74.9-82.1c7.2-7.2-14.5-24.2-50.7-36.2c-33.8-14.5-62.8-36.2-62.8-50.7
		c0-12.1-7.2-24.2-16.9-24.2c-12.1,0-14.5,53.1-12.1,118.3l9.7,115.9l-86.9,16.9c-65.2,12.1-87,29-87,62.8
		c0,38.6-16.9,48.3-72.5,48.3c-48.3,0-72.5-12.1-72.5-36.2c0-21.7-14.5-29-36.2-21.7c-26.6,12.1-36.2,55.6-36.2,190.8
		c0,142.5-9.7,181.1-48.3,217.4c-26.6,24.2-48.3,58-48.3,77.3c0,16.9-24.2,31.4-55.6,31.4c-38.6,0-62.8-21.7-82.1-72.5
		c-14.5-38.6-43.5-72.5-65.2-72.5s-38.6-9.7-38.6-21.7c0-9.7-65.2-26.6-142.5-36.2l-142.5-16.9l-24.2-113.5
		c-12.1-62.8-24.2-89.4-26.6-58c-2.4,36.2-16.9,53.1-50.7,53.1c-31.4,0-48.3,16.9-48.3,48.3c0,38.6-16.9,48.3-82.1,48.3
		c-60.4,0-84.5-12.1-94.2-48.3c-7.2-26.6-29-48.3-50.7-48.3c-29,0-38.6-24.2-38.6-108.7c0-60.4-9.7-108.7-24.2-108.7
		c-12.1,0-24.2,12.1-24.2,24.2c0,14.5-21.7,24.2-48.3,24.2c-29,0-62.8,29-84.5,72.5c-41.1,82.1-94.2,94.2-130.4,31.4
		c-21.7-38.6-24.2-36.2-26.6,12.1c0,29-16.9,60.4-36.2,67.6c-19.3,9.7-36.2,41.1-36.2,74.9c0,50.7-9.7,58-53.1,48.3
		c-31.4-4.8-74.9-19.3-96.6-29c-36.2-14.5-43.5-4.8-43.5,60.4c0,45.9-9.7,70-24.2,60.4s-53.1,2.4-84.5,21.7
		c-50.7,33.8-60.4,33.8-60.4,4.8c0-21.7-16.9-29-45.9-21.7c-41.1,9.7-62.8-4.8-142.5-99c-21.7-26.6-29-217.4-29-763.2v-724.6H9925.1
		h15457.8v833.3c0,562.8-7.2,833.3-24.2,833.3c-14.5,0-24.2,14.5-21.7,31.4c2.4,14.5-2.4,45.9-9.7,65.2s-19.3,74.9-21.7,120.8
		c-7.2,77.3-14.5,84.5-89.4,91.8c-53.1,4.8-84.5,21.7-91.8,53.1c-7.2,26.6-43.5,53.1-79.7,60.4c-82.1,16.9-86.9,26.6-94.2,241.5
		c-2.4,94.2-14.5,176.3-24.2,186c-9.7,9.7-70,29-132.8,41.1c-118.3,21.7-164.2,58-144.9,111.1c7.2,16.9-4.8,36.2-24.2,43.5
		c-21.7,9.7-38.6,33.8-38.6,55.6c0,31.4-14.5,36.2-74.9,24.2c-41.1-7.2-84.5-14.5-96.6-14.5c-12.1,0-14.5-16.9-7.2-36.2
		c9.7-21.7,0-36.2-24.2-36.2c-24.2,0-38.6-21.7-38.6-58c0-50.7-12.1-58-147.3-72.5l-147.3-16.9l9.7-222.2
		c7.2-217.4,4.8-222.2-45.9-217.4c-41.1,4.8-53.1-7.2-60.4-60.4c-4.8-50.7-21.7-67.6-72.5-72.5c-58-7.2-67.6,0-67.6,53.1
		c0,45.9-16.9,65.2-60.4,77.3c-33.8,9.7-70,9.7-77.3,0c-7.2-7.2-29-2.4-48.3,12.1c-24.2,21.7-31.4,19.3-31.4,0
		c0-16.9-12.1-21.7-24.2-14.5c-19.3,12.1-16.9,26.6,2.4,50.7c31.4,36.2,12.1,190.8-26.6,215c-38.6,24.2-120.8-12.1-120.8-48.3
		c0-58-123.2-74.9-161.8-24.2c-29,41.1-31.4,41.1-31.4,4.8c0-21.7-12.1-41.1-26.6-41.1c-16.9,0-21.7-29-12.1-84.5
		c16.9-84.5,16.9-84.5-70-84.5c-55.6,0-91.8,12.1-101.4,38.6c-9.7,26.6-31.4,33.8-72.5,21.7c-33.8-7.2-74.9,0-96.6,16.9
		c-31.4,24.2-43.5,21.7-79.7-24.2c-45.9-55.6-130.4-70-157-29c-24.2,38.6-53.1,29-67.6-24.2c-7.2-29-33.8-48.3-60.4-48.3
		s-53.1-14.5-60.4-31.4c-7.2-19.3-45.9-33.8-87-36.2c-111.1-2.4-123.2-19.3-123.2-169.1c0-99-7.2-128-24.2-101.4
		c-12.1,19.3-24.2,108.7-24.2,198.1c0,144.9-7.2,166.7-70,229.5c-38.6,38.6-72.5,91.8-77.3,118.3c-7.2,29-33.8,48.3-77.3,53.1
		c-50.7,7.2-65.2,21.7-65.2,65.2c0,82.1-43.5,99-53.1,19.3c-4.8-58-19.3-67.6-79.7-67.6c-55.6,0-72.5,12.1-84.5,60.4
		c-12.1,53.1-29,60.4-128,67.6c-111.1,7.2-113.5,9.7-173.9,135.3c-33.8,70-60.4,157-60.4,193.2c0,84.5-60.4,103.9-297.1,96.6
		c-207.7-7.2-268.1-36.2-248.8-120.8c9.7-31.4,4.8-60.4-7.2-67.6c-12.1-7.2-16.9-36.2-9.7-62.8c9.7-33.8-4.8-55.6-50.7-74.9
		c-45.9-21.7-62.8-48.3-62.8-99c0-36.2,12.1-67.6,24.2-67.6c14.5,0,24.2-12.1,24.2-26.6c0-14.5-21.7-21.7-48.3-14.5
		c-33.8,9.7-60.4-2.4-79.7-33.8c-14.5-24.2-50.7-45.9-79.7-45.9c-29,0-82.1-7.2-120.8-14.5c-70-12.1-70-14.5-62.8-166.7
		c9.7-176.3-50.7-355-115.9-347.8c-72.5,7.2-96.6-2.4-96.6-38.6c0-29-9.7-31.4-60.4-7.2c-43.5,19.3-67.6,19.3-94.2-2.4
		c-21.7-19.3-140.1-33.8-304.3-41.1c-251.2-7.2-265.7-4.8-265.7,38.6c0,26.6-21.7,87-50.7,135.3c-26.6,48.3-43.5,103.9-36.2,120.8
		c21.7,58-12.1,106.3-74.9,106.3c-31.4,0-74.9,16.9-94.2,36.2c-21.7,19.3-58,36.2-84.5,36.2c-36.2,0-45.9,16.9-45.9,74.9
		c0,74.9-2.4,74.9-89.4,62.8c-48.3-9.7-94.2-26.6-101.4-38.6c-9.7-14.5-29-16.9-45.9-7.2c-19.3,14.5-33.8,183.6-43.5,572.4
		c-14.5,497.5-21.7,560.3-60.4,599c-29,26.6-45.9,77.3-45.9,125.6c0,72.5-7.2,84.5-58,84.5c-31.4,0-62.8-14.5-70-29
		c-16.9-48.3-65.2,94.2-65.2,188.4c0,50.7-9.7,79.7-24.2,70c-38.6-24.2-120.8,12.1-120.8,53.1c0,38.6-26.6,128-82.1,292.2l-29,77.3
		L18096,8174.5z"/>
</g>
<g transform="translate(0.000000,640.000000) scale(0.100000,-0.100000)">
	<path class="st1" d="M9783,6228.9c-7-18-15-58-19-88c-7-58-18-73-46-64c-16,5-18-2-18-51c0-48-3-58-20-62c-14-4-20-14-20-34
		c0-16-5-29-11-29c-8,0-9-63-4-220l8-220h-31c-24,0-31-5-36-25c-16-62-24-9-30,203c-4,125-12,229-17,230c-5,2-9,12-9,23
		s-11,37-25,59s-25,51-25,64c0,19-6,25-27,28c-23,2-29,9-31,33c-2,17-7,35-12,40c-4,6-11,29-15,53c-9,56-22,53-31-5
		c-3-27-11-54-16-60c-6-7-7-24-4-38c5-18,2-25-8-25c-8,0-17-6-19-12c-4-10-6-10-6,0c-1,6-5,12-11,12c-5,0-10-24-10-54
		c0-46-3-56-20-61c-13-4-20-15-20-30c0-13-5-27-11-31c-8-5-10-73-4-250l7-244l-26-11c-14-7-28-20-31-31c-4-10-11-18-16-18
		s-9-11-9-25s-4-25-10-25s-10-43-10-109c0-116-14-155-25-71c-4,27-11,52-16,56c-5,3-9,32-9,65c0,56-1,59-25,59c-20,0-25,5-25,24
		c0,28-21,36-101,36c-62,0-69,7-69,76c0,40-43,73-72,55c-10-6-25-11-33-11c-11,0-15-11-15-42c0-55-32-88-84-88c-32,0-36-3-36-25
		c0-15-6-25-15-25c-10,0-15-16-17-62c-3-55-6-63-24-66c-17-2-23-12-27-46c-10-71-23-96-52-96c-23,0-25-4-25-45v-44l-41,14
		c-23,8-50,15-60,15c-14,0-19,7-19,29c0,16-5,31-11,33c-5,2-12,23-15,48c-7,58-17,75-54,90c-16,7-30,19-30,26c0,19-16,18-24-2
		c-9-23-65-11-88,19l-18,22l-21-25c-14-17-22-21-26-12c-2,6-9,12-14,12c-17,0-50,41-56,70c-7,35-23,30-23-8c-1-42-32-72-72-70
		c-18,1-60-2-94-6l-61-8l-6,92c-4,51-7,113-7,137c0,36-3,43-20,43c-16,0-20,7-20,34c0,31-3,34-35,40c-39,8-75,0-75-15c0-5-7-9-15-9
		c-11,0-15-12-15-50s-4-50-15-50c-8,0-15-9-15-20s-4-20-10-20c-5,0-10-9-10-20s-4-20-10-20c-5,0-10-9-10-20s-4-20-10-20
		c-5,0-10-7-10-15c0-10-11-15-35-15c-28,0-35,4-35,20c0,11-4,20-10,20c-5,0-10,18-10,39c0,43-13,50-72,42c-24-3-28-8-28-37
		c0-32-2-34-36-34c-27,0-37-5-41-20c-5-17-14-20-64-20c-33,0-59,4-59,9s-13,11-29,13c-22,3-31,0-34-13c-4-13-17-19-48-21
		c-37-2-45-7-47-25c-2-13-8-23-13-23s-9-8-9-17c0-13-3-14-12-5c-8,8-21,1-50-31c-37-40-40-41-53-23c-17,23-45,14-45-14
		c0-23-12-24-112-10c-67,10-97,27-111,63c-3,9-13,17-22,17c-11,0-15,12-15,49v49l-37,5c-21,2-42,0-48-5c-10-9-11-12-13-56l-2-24
		l-33,21c-33,20-34,20-68,2c-30-16-34-23-37-64c-2-36-7-46-24-50c-14-4-26,0-34,11c-9,13-15,14-26,4c-11-9-17-9-27,1
		c-10,9-16,7-28-10c-18-26-41-30-49-8c-9,23-34,18-34-7c-1-24-45-64-54-49c-3,5-15,7-25,4s-22,0-25,6c-9,13-36,3-36-14
		c0-7,6-16,13-18c6-3-16-6-50-6c-61-1-63,0-63,24c0,26-23,35-35,14c-4-6-12-8-19-6c-7,3-23-4-37-14c-26-20-49-25-49-9
		c0,6-7,10-15,10s-15-7-15-15c0-25-30-17-40,10c-8,22-14,24-37,19c-15-4-35-16-44-27c-19-25-49-17-49,13c0,11-7,20-15,20
		c-10,0-15-10-15-30c0-30-1-30-55-30c-41,0-56-4-64-17c-13-22-12-25-17,72c-8,147-11,155-75,155c-37,0-49-4-49-15c0-8-4-15-10-15
		c-5,0-10-6-10-12c0-9-20-13-65-14h-64l-3,40l-3,41l-47,3l-47,3l-3-48c-3-47-3-47-38-48c-30,0-35-4-38-27c-4-30-26-53-42-43
		c-5,3-10,26-10,50s-5,56-11,72c-6,15-13,48-15,73c-3,24-9,49-14,54c-6,6-10,20-10,33s-4,23-9,23c-23,0-41-14-41-32c0-11-8-22-20-25
		c-11-3-20-14-20-24c0-11-7-19-15-19c-14,0-19-14-18-47c1-7-3-13-7-13c-16,0-30-64-30-132c0-48-5-74-15-84c-22-22-35-8-35,37v39h-55
		h-55v-35c0-21-8-44-19-56c-18-20-19-20-29-2c-10,17-12,17-24,1c-14-18-51-24-85-13c-15,5-23,16-25,39c-3,29-5,31-43,31s-40-2-43-32
		c-2-18-7-33-11-33c-10,0-21,35-21,68c0,15-6,22-20,22c-11,0-20,6-20,13c0,6-5,29-11,50c-9,34-12,37-37,30c-15-4-36-6-47-5
		c-10,0-25-4-32-10c-9-8-13-7-13,2s-3,10-14,1c-17-14-26,5-26,53c0,39-39,83-57,65c-8-8-19-4-39,17l-28,29l-22-22
		c-14-14-24-40-28-77l-7-56l-40,5c-23,3-39,1-39-5c0-5-6-10-14-10c-9,0-15,16-18,49c-3,34-13,59-31,81c-15,17-27,26-27,18
		c0-7-8-18-19-25c-14-9-20-29-26-87c-4-42-11-76-16-76s-9-13-9-29c0-25-4-30-27-33c-28-3-28-4-34-88c-3-47-6-79-7-72
		c-6,39-72,59-72,22c0-16-7-20-30-20c-25,0-30,4-30,25s-5,25-30,25c-24,0-30-4-30-22c0-20-5-23-39-22c-47,1-61,9-61,35
		c0,27-50,27-57-1s-32-25-43,5c-13,34-47,33-63-2c-11-27-12-25-15,30c-3,54-5,57-28,57c-25,0-26,1-22,67l3,67l-31,8c-16,4-50,4-75,0
		c-44-8-44-8-44-50c-1-23-6-47-13-54c-9-9-12-5-12,21c0,48-16,71-50,71c-26,0-30,4-30,26s-3,25-32,22c-24-2-34-9-38-26
		c-3-12-16-28-30-35c-23-12-26-19-34-120l-8-107h-29c-16,0-29-4-29-10c0-5-4-10-10-10s-10,27-10,60c0,47-3,60-15,60s-15-14-15-65
		s-3-65-15-65c-18,0-18-2-15,210c2,178-3,220-28,220c-8,0-24,7-34,17c-17,15-19,15-36,0c-10-10-24-17-32-17c-23,0-39-34-40-86
		c0-28-3-99-7-157c-6-101-7-107-28-107c-11,0-26-5-33-12c-8-8-15-8-26,2c-9,7-13,16-10,21s-9,9-25,9c-17,0-31,5-31,11
		c0,7-14,10-35,7c-22-2-36,1-39,9c-3,7-19,13-37,13c-22,0-32-5-36-20c-4-17-14-20-58-20h-52l5,183l5,182l-34,13c-22,8-35,9-37,2
		c-2-5-21-10-42-10c-30,0-42-5-50-21c-7-11-14-18-17-15c-11,10-43-15-43-33c0-11-7-21-14-24c-8-3-18-22-22-42c-9-47-19-35-36,44
		l-14,63l-24-71c-26-77-40-98-40-57c0,14-4,26-10,26c-5,0-10,12-11,28c0,15-4,36-8,47c-7,16-10,10-16-27c-4-27-11-48-16-48
		s-9-8-9-19c0-10-7-24-15-31s-15-19-15-26c0-8-9-23-19-33c-19-19-20-19-37,17l-17,37l-13-32c-8-17-18-34-24-38c-5-3-10-18-10-32
		c0-15-7-27-18-30c-10-2-24-17-31-34c-7-16-17-29-23-29c-13,0-38-26-31-34c3-3-6-10-21-15c-14-6-26-15-26-21c0-5-3-10-7-10
		c-5,0-6,22-5,49l4,48l-36,7c-27,5-36,12-36,26c0,16-7,20-30,20c-20,0-30-5-30-15c0-9-6-12-15-9c-11,5-15,23-15,79c0,59-4,75-20,90
		c-11,10-20,24-20,32c0,7-10,13-23,13c-16,0-26-9-34-30c-6-16-18-30-27-30s-16-4-16-9c0-4-27-11-59-15l-59-7l-10-47
		c-5-26-10-37-11-24c-1,15-7,22-21,22c-13,0-20,7-20,20c0,16-7,20-34,20c-25,0-35-5-39-20c-3-11-12-20-21-20c-12,0-16-10-16-45
		c0-25-4-45-10-45c-5,0-10,5-10,10c0,6-9,10-20,10c-12,0-26,12-35,30c-17,34-39,39-54,13c-9-16-10-15-11,5c0,12-7,25-15,28
		c-8,4-15,17-15,31c0,21-4,24-22,20c-13-2-31-8-40-12c-15-6-18-2-18,25c0,19-4,29-10,25s-22,1-35,9c-21,14-25,14-25,2c0-9-7-12-19-9
		c-17,4-26-2-59-41c-9-11-12-90-12-316v-300h6400h6400v345c0,233-3,345-10,345c-6,0-10,6-9,13c1,6-1,19-4,27s-8,31-9,50
		c-3,32-6,35-37,38c-22,2-35,9-38,22c-3,11-18,22-33,25c-34,7-36,11-39,100c-1,39-6,73-10,77s-29,12-55,17c-49,9-68,24-60,46
		c3,7-2,15-10,18c-9,4-16,14-16,23c0,13-6,15-31,10c-17-3-35-6-40-6s-6-7-3-15c4-9,0-15-10-15s-16-9-16-24c0-21-5-24-61-30l-61-7
		l4-92c3-90,2-92-19-90c-17,2-22-3-25-25c-2-21-9-28-30-30c-24-3-28,0-28,22c0,19-7,27-25,32c-14,4-29,4-32,0c-3-3-12-1-20,5
		c-10,9-13,8-13,0c0-7-5-9-10-6c-8,5-7,11,1,21c13,15,5,79-11,89s-50-5-50-20c0-24-51-31-67-10c-12,17-13,17-13,2c0-9-5-17-11-17
		c-7,0-9-12-5-35c7-35,7-35-29-35c-23,0-38,5-42,16s-13,14-30,9c-14-3-31,0-40,7c-13,10-18,9-33-10c-19-23-54-29-65-12
		c-10,16-22,12-28-10c-3-12-14-20-25-20s-22-6-25-13c-3-8-19-14-36-15c-46-1-51-8-51-70c0-41-3-53-10-42c-5,8-10,45-10,82
		c0,60-3,69-29,95c-16,16-30,38-32,49c-3,12-14,20-32,22c-21,3-27,9-27,27c0,34-18,41-22,8c-2-24-8-28-33-28c-23,0-30,5-35,25
		c-5,22-12,25-53,28c-46,3-47,4-72,56c-14,29-25,65-25,80c0,35-25,43-123,40c-86-3-111-15-103-50c4-13,2-25-3-28s-7-15-4-26
		c4-14-2-23-21-31c-19-9-26-20-26-41c0-15,5-28,10-28c6,0,10-5,10-11s-9-9-20-6c-14,4-25-1-33-14c-6-10-21-19-33-19s-34-3-50-6
		c-29-5-29-6-26-69c4-73-21-147-48-144c-30,3-40-1-40-16c0-12-4-13-25-3c-18,8-28,8-39-1c-9-8-58-14-126-17c-104-3-110-2-110,16
		c0,11-9,36-21,56c-11,20-18,43-15,50c9,24-5,44-31,44c-13,0-31,7-39,15c-9,8-24,15-35,15c-15,0-19,7-19,31c0,31-1,31-37,26
		c-20-4-39-11-42-16c-4-6-12-7-19-3c-8,6-14,76-18,237c-6,206-9,232-25,248c-12,11-19,32-19,52c0,30-3,35-24,35c-13,0-26-6-29-12
		c-7-20-27,39-27,78c0,21-4,33-10,29c-16-10-50,5-50,22c0,16-11,53-34,121l-12,32L9783,6228.9z"/>
</g>
</svg>
