<svg xmlns="http://www.w3.org/2000/svg" viewBox="0 0 3091.56 425.09"><defs><style>.cls-1{opacity:0.6;}.cls-2{fill:#34495e;}</style></defs><g id="Calque_2" data-name="Calque 2"><g id="Calque_1-2" data-name="Calque 1"><g class="cls-1"><path class="cls-2" d="M2362.87,7.73c-1.69,4.35-3.62,14-4.59,21.25-1.69,14-4.35,17.63-11.11,15.46-3.86-1.21-4.35.48-4.35,12.32,0,11.59-.72,14-4.83,15-3.38,1-4.83,3.39-4.83,8.22,0,3.86-1.21,7-2.66,7-1.93,0-2.17,15.22-1,53.14l1.93,53.13H2324c-5.79,0-7.48,1.21-8.69,6-3.87,15-5.8,2.17-7.25-49-1-30.19-2.9-55.31-4.1-55.55-1.21-.48-2.18-2.9-2.18-5.56s-2.65-8.93-6-14.25-6-12.31-6-15.45c0-4.59-1.45-6-6.52-6.77-5.56-.48-7-2.17-7.49-8-.49-4.1-1.69-8.45-2.9-9.66-1-1.45-2.66-7-3.62-12.8-2.18-13.52-5.32-12.8-7.49,1.21-.73,6.52-2.66,13-3.87,14.49-1.44,1.69-1.69,5.8-1,9.18,1.21,4.35.48,6-1.93,6-1.94,0-4.11,1.45-4.59,2.89q-1.46,3.63-1.45,0c-.24-1.44-1.21-2.89-2.66-2.89-1.21,0-2.41,5.79-2.41,13,0,11.11-.73,13.52-4.83,14.73-3.14,1-4.84,3.62-4.84,7.25,0,3.14-1.2,6.52-2.65,7.49-1.93,1.2-2.42,17.63-1,60.38L2232.2,215l-6.28,2.66c-3.38,1.69-6.76,4.83-7.48,7.48-1,2.42-2.66,4.35-3.87,4.35s-2.17,2.66-2.17,6-1,6-2.42,6-2.41,10.38-2.41,26.32c0,28-3.38,37.44-6,17.15-1-6.52-2.66-12.56-3.87-13.52-1.2-.73-2.17-7.73-2.17-15.7,0-13.53-.24-14.25-6-14.25-4.83,0-6-1.21-6-5.8,0-6.76-5.07-8.69-24.39-8.69-15,0-16.67-1.69-16.67-18.36,0-9.66-10.38-17.63-17.39-13.28a19.26,19.26,0,0,1-8,2.65c-2.65,0-3.62,2.66-3.62,10.15,0,13.28-7.73,21.25-20.29,21.25-7.73,0-8.69.73-8.69,6,0,3.62-1.45,6-3.63,6-2.41,0-3.62,3.86-4.1,15-.73,13.29-1.45,15.22-5.8,15.94-4.1.49-5.55,2.9-6.52,11.11-2.41,17.15-5.55,23.19-12.56,23.19-5.55,0-6,1-6,10.87v10.63l-9.9-3.38c-5.55-1.94-12.08-3.63-14.49-3.63-3.38,0-4.59-1.69-4.59-7,0-3.87-1.21-7.49-2.66-8-1.2-.49-2.9-5.56-3.62-11.6-1.69-14-4.11-18.11-13-21.73-3.87-1.69-7.25-4.59-7.25-6.28,0-4.59-3.86-4.35-5.8.48-2.17,5.56-15.69,2.66-21.25-4.59l-4.35-5.31-5.07,6c-3.38,4.1-5.31,5.07-6.28,2.89-.48-1.45-2.17-2.89-3.38-2.89-4.11,0-12.08-9.91-13.53-16.91-1.69-8.45-5.55-7.25-5.55,1.93-.24,10.15-7.73,17.39-17.39,16.91-4.35-.24-14.49.48-22.7,1.45l-14.74,1.93-1.45-22.22c-1-12.32-1.69-27.29-1.69-33.09,0-8.7-.72-10.39-4.83-10.39-3.86,0-4.83-1.69-4.83-8.21,0-7.49-.72-8.21-8.45-9.66-9.42-1.93-18.12,0-18.12,3.62,0,1.21-1.69,2.18-3.62,2.18-2.66,0-3.62,2.9-3.62,12.07s-1,12.08-3.63,12.08c-1.93,0-3.62,2.17-3.62,4.83s-1,4.83-2.41,4.83c-1.21,0-2.42,2.17-2.42,4.83s-1,4.83-2.41,4.83c-1.21,0-2.42,2.18-2.42,4.83s-1,4.83-2.42,4.83c-1.2,0-2.41,1.69-2.41,3.63,0,2.41-2.66,3.62-8.45,3.62-6.77,0-8.46-1-8.46-4.83,0-2.66-1-4.83-2.41-4.83-1.21,0-2.42-4.35-2.42-9.42,0-10.39-3.14-12.08-17.39-10.15-5.79.73-6.76,1.94-6.76,8.94,0,7.73-.48,8.21-8.7,8.21-6.52,0-8.93,1.21-9.9,4.83-1.21,4.11-3.38,4.83-15.46,4.83-8,0-14.25-1-14.25-2.17s-3.14-2.66-7-3.14c-5.31-.72-7.49,0-8.21,3.14-1,3.14-4.11,4.59-11.6,5.07-8.93.49-10.86,1.69-11.35,6-.48,3.14-1.93,5.56-3.14,5.56s-2.17,1.93-2.17,4.1c0,3.14-.73,3.38-2.9,1.21-1.93-1.93-5.07-.24-12.08,7.49-8.93,9.66-9.66,9.9-12.8,5.55-4.1-5.55-10.87-3.38-10.87,3.38,0,5.56-2.89,5.8-27,2.42-16.18-2.42-23.43-6.52-26.81-15.22a6.25,6.25,0,0,0-5.31-4.1c-2.66,0-3.62-2.9-3.62-11.84V244.43l-8.94-1.21c-5.07-.48-10.14,0-11.59,1.21-2.42,2.17-2.66,2.89-3.14,13.52l-.49,5.8-8-5.07c-8-4.83-8.21-4.83-16.42-.49-7.25,3.87-8.21,5.56-8.94,15.46-.48,8.7-1.69,11.11-5.79,12.08a7.13,7.13,0,0,1-8.22-2.66c-2.17-3.14-3.62-3.38-6.28-1-2.65,2.18-4.1,2.18-6.52-.24-2.41-2.17-3.86-1.69-6.76,2.42-4.35,6.28-9.9,7.24-11.83,1.93-2.18-5.55-8.22-4.35-8.22,1.69-.24,5.8-10.86,15.46-13,11.84-.72-1.21-3.62-1.69-6-1s-5.31,0-6-1.45c-2.17-3.14-8.69-.72-8.69,3.38a5,5,0,0,0,3.14,4.35c1.45.72-3.86,1.45-12.08,1.45-14.73.24-15.21,0-15.21-5.8,0-6.28-5.56-8.45-8.46-3.38a4.13,4.13,0,0,1-4.59,1.45c-1.69-.72-5.55,1-8.93,3.38-6.28,4.83-11.84,6-11.84,2.18,0-1.45-1.69-2.42-3.62-2.42a3.71,3.71,0,0,0-3.62,3.62c0,6-7.25,4.11-9.66-2.41-1.94-5.32-3.39-5.8-8.94-4.59-3.62,1-8.45,3.86-10.63,6.52-4.59,6-11.83,4.11-11.83-3.14,0-2.66-1.69-4.83-3.63-4.83-2.41,0-3.62,2.41-3.62,7.25,0,7.24-.24,7.24-13.28,7.24-9.9,0-13.53,1-15.46,4.11-3.14,5.31-2.9,6-4.11-17.39-1.93-35.51-2.65-37.44-18.11-37.44-8.94,0-11.84,1-11.84,3.62,0,1.94-1,3.63-2.41,3.63-1.21,0-2.42,1.45-2.42,2.89,0,2.18-4.83,3.14-15.7,3.39h-15.45l-.73-9.67-.72-9.9-11.35-.72-11.36-.73-.72,11.6c-.73,11.35-.73,11.35-9.18,11.59-7.24,0-8.45,1-9.18,6.52-1,7.25-6.28,12.8-10.14,10.39-1.21-.73-2.42-6.28-2.42-12.08s-1.2-13.53-2.65-17.39c-1.45-3.62-3.14-11.59-3.63-17.63-.72-5.8-2.17-11.84-3.38-13-1.45-1.45-2.41-4.83-2.41-8s-1-5.56-2.18-5.56c-5.55,0-9.9,3.38-9.9,7.73a6.39,6.39,0,0,1-4.83,6c-2.66.72-4.83,3.38-4.83,5.79,0,2.66-1.69,4.59-3.62,4.59-3.38,0-4.59,3.38-4.35,11.36.24,1.69-.73,3.14-1.69,3.14-3.87,0-7.25,15.45-7.25,31.88,0,11.59-1.2,17.87-3.62,20.29-5.31,5.31-8.45,1.93-8.45-8.94v-9.42h-26.57v8.45c0,5.07-1.93,10.63-4.59,13.53-4.35,4.83-4.59,4.83-7,.48-2.42-4.1-2.9-4.1-5.8-.24-3.38,4.35-12.32,5.8-20.53,3.14-3.62-1.21-5.56-3.86-6-9.42-.72-7-1.21-7.49-10.39-7.49s-9.66.49-10.38,7.73c-.48,4.35-1.69,8-2.66,8-2.41,0-5.07-8.45-5.07-16.42,0-3.63-1.45-5.32-4.83-5.32-2.66,0-4.83-1.44-4.83-3.14,0-1.44-1.21-7-2.66-12.07-2.17-8.21-2.9-8.94-8.93-7.25a39.54,39.54,0,0,1-11.36,1.21c-2.41,0-6,1-7.73,2.42-2.17,1.93-3.14,1.69-3.14-.49s-.72-2.41-3.38-.24c-4.1,3.38-6.28-1.21-6.28-12.8,0-9.42-9.42-20.05-13.76-15.7-1.94,1.93-4.59,1-9.42-4.11l-6.77-7-5.31,5.31c-3.38,3.38-5.8,9.66-6.76,18.6L891,272.93l-9.66-1.21c-5.56-.73-9.42-.24-9.42,1.21,0,1.2-1.45,2.41-3.38,2.41-2.18,0-3.63-3.86-4.35-11.83-.73-8.21-3.14-14.25-7.49-19.57-3.62-4.1-6.52-6.28-6.52-4.34,0,1.69-1.93,4.34-4.59,6-3.38,2.18-4.83,7-6.28,21-1,10.14-2.66,18.35-3.86,18.35s-2.18,3.14-2.18,7c0,6-1,7.24-6.52,8-6.76.72-6.76,1-8.21,21.25-.73,11.35-1.45,19.08-1.69,17.39-1.45-9.42-17.39-14.25-17.39-5.31,0,3.86-1.69,4.83-7.25,4.83-6,0-7.24-1-7.24-6s-1.21-6-7.25-6c-5.8,0-7.25,1-7.25,5.32,0,4.83-1.2,5.55-9.41,5.31-11.36-.24-14.74-2.17-14.74-8.45,0-6.52-12.07-6.52-13.77.24s-7.72,6-10.38-1.21c-3.14-8.21-11.35-8-15.22.48-2.65,6.52-2.9,6-3.62-7.24-.72-13-1.21-13.77-6.76-13.77-6,0-6.28-.24-5.32-16.18l.73-16.18-7.49-1.94c-3.86-1-12.08-1-18.11,0-10.63,1.94-10.63,1.94-10.63,12.08-.24,5.56-1.45,11.35-3.14,13-2.17,2.18-2.9,1.21-2.9-5.07,0-11.59-3.86-17.15-12.08-17.15-6.28,0-7.24-1-7.24-6.28s-.73-6-7.73-5.31c-5.8.48-8.21,2.17-9.18,6.28-.72,2.9-3.86,6.76-7.24,8.45-5.56,2.9-6.28,4.59-8.22,29l-1.93,25.84h-7c-3.87,0-7,1-7,2.41a2.42,2.42,0,0,1-2.41,2.42c-1.45,0-2.42-6.52-2.42-14.49,0-11.35-.72-14.49-3.62-14.49s-3.62,3.38-3.62,15.7-.73,15.69-3.63,15.69c-4.34,0-4.34.49-3.62-50.72.48-43-.72-53.13-6.76-53.13-1.93,0-5.8-1.69-8.21-4.11-4.11-3.62-4.59-3.62-8.7,0-2.41,2.42-5.8,4.11-7.73,4.11-5.55,0-9.42,8.21-9.66,20.77,0,6.76-.72,23.91-1.69,37.92-1.45,24.39-1.69,25.84-6.76,25.84-2.66,0-6.28,1.21-8,2.9-1.94,1.93-3.63,1.93-6.28-.48-2.18-1.69-3.14-3.87-2.42-5.07s-2.17-2.18-6-2.18c-4.1,0-7.48-1.21-7.48-2.65,0-1.7-3.39-2.42-8.46-1.7-5.31.49-8.69-.24-9.42-2.17-.72-1.69-4.59-3.14-8.93-3.14-5.32,0-7.73,1.21-8.7,4.83-1,4.11-3.38,4.83-14,4.83H421l1.21-44.2,1.21-44-8.21-3.14c-5.32-1.93-8.46-2.17-8.94-.48-.48,1.21-5.07,2.42-10.14,2.42-7.25,0-10.15,1.2-12.08,5.07-1.69,2.66-3.38,4.35-4.11,3.62-2.65-2.41-10.38,3.62-10.38,8a6.59,6.59,0,0,1-3.38,5.8c-1.94.72-4.35,5.31-5.32,10.14-2.17,11.35-4.59,8.46-8.69-10.62l-3.38-15.22L343,251c-6.28,18.6-9.66,23.67-9.66,13.76,0-3.38-1-6.27-2.42-6.27-1.2,0-2.41-2.9-2.65-6.77a39.64,39.64,0,0,0-1.94-11.35c-1.69-3.86-2.41-2.41-3.86,6.52-1,6.52-2.66,11.6-3.86,11.6s-2.18,1.93-2.18,4.58a11.61,11.61,0,0,1-3.62,7.49c-1.93,1.69-3.62,4.59-3.62,6.28,0,1.93-2.18,5.56-4.59,8-4.59,4.59-4.83,4.59-8.94-4.1l-4.11-8.94-3.14,7.73c-1.93,4.1-4.34,8.21-5.79,9.18-1.21.72-2.42,4.34-2.42,7.72,0,3.63-1.69,6.53-4.34,7.25-2.42.48-5.8,4.11-7.49,8.21-1.69,3.87-4.11,7-5.56,7-3.14,0-9.18,6.28-7.48,8.21.72.72-1.45,2.41-5.08,3.62-3.38,1.45-6.28,3.62-6.28,5.07,0,1.21-.72,2.42-1.69,2.42-1.2,0-1.45-5.31-1.2-11.84l1-11.59L233.32,313c-6.53-1.21-8.7-2.9-8.7-6.28,0-3.86-1.69-4.83-7.24-4.83-4.84,0-7.25,1.21-7.25,3.62,0,2.18-1.45,2.9-3.62,2.18-2.66-1.21-3.63-5.56-3.63-19.08,0-14.25-1-18.12-4.83-21.74-2.65-2.42-4.83-5.8-4.83-7.73,0-1.69-2.41-3.14-5.55-3.14-3.87,0-6.28,2.17-8.21,7.25-1.45,3.86-4.35,7.24-6.53,7.24s-3.86,1-3.86,2.18c0,1-6.52,2.65-14.25,3.62L140.57,278l-2.42,11.35c-1.2,6.28-2.41,8.94-2.65,5.8-.24-3.63-1.69-5.32-5.07-5.32-3.14,0-4.84-1.69-4.84-4.83,0-3.86-1.69-4.83-8.21-4.83-6,0-8.45,1.21-9.42,4.83-.72,2.66-2.9,4.83-5.07,4.83-2.9,0-3.86,2.42-3.86,10.87,0,6-1,10.87-2.42,10.87a2.59,2.59,0,0,1-2.41-2.41c0-1.45-2.18-2.42-4.83-2.42-2.9,0-6.28-2.9-8.46-7.25-4.1-8.21-9.42-9.41-13-3.14-2.17,3.87-2.42,3.63-2.66-1.2,0-2.9-1.69-6-3.62-6.77-1.93-1-3.62-4.1-3.62-7.48,0-5.07-1-5.8-5.32-4.83A46.09,46.09,0,0,0,43,279c-3.62,1.45-4.35.49-4.35-6,0-4.59-1-7-2.41-6s-5.31-.24-8.45-2.18c-5.08-3.38-6-3.38-6-.48,0,2.18-1.69,2.9-4.59,2.18-4.11-1-6.28.48-14.25,9.9C.72,279,0,298.05,0,352.63v72.46H3091.56V341.76c0-56.27-.72-83.32-2.42-83.32-1.44,0-2.41-1.45-2.17-3.14a16.45,16.45,0,0,0-1-6.53,52.07,52.07,0,0,1-2.17-12.07c-.72-7.73-1.45-8.46-8.94-9.18-5.31-.48-8.45-2.17-9.17-5.31-.73-2.66-4.35-5.32-8-6-8.22-1.69-8.7-2.66-9.42-24.16-.25-9.41-1.45-17.63-2.42-18.59s-7-2.9-13.28-4.11c-11.84-2.17-16.43-5.8-14.49-11.11.72-1.69-.49-3.62-2.42-4.35a6.62,6.62,0,0,1-3.86-5.55c0-3.14-1.45-3.62-7.49-2.42-4.11.73-8.46,1.45-9.66,1.45s-1.45,1.69-.73,3.63c1,2.17,0,3.62-2.41,3.62s-3.87,2.17-3.87,5.79c0,5.08-1.2,5.8-14.73,7.25l-14.73,1.69,1,22.22c.73,21.74.49,22.22-4.59,21.74-4.1-.48-5.31.72-6,6-.49,5.07-2.18,6.76-7.25,7.24-5.8.73-6.76,0-6.76-5.31,0-4.59-1.69-6.52-6-7.73-3.38-1-7-1-7.73,0-.73.73-2.9.24-4.83-1.21-2.42-2.17-3.14-1.93-3.14,0,0,1.69-1.21,2.18-2.42,1.45-1.93-1.21-1.69-2.65.25-5.07,3.14-3.62,1.2-19.08-2.66-21.5s-12.08,1.21-12.08,4.83c0,5.8-12.32,7.49-16.18,2.42-2.9-4.11-3.14-4.11-3.14-.48,0,2.17-1.21,4.1-2.66,4.1-1.69,0-2.17,2.9-1.2,8.46,1.69,8.45,1.69,8.45-7,8.45-5.55,0-9.18-1.21-10.14-3.86s-3.14-3.39-7.25-2.18c-3.38.73-7.49,0-9.66-1.69-3.14-2.41-4.35-2.17-8,2.42-4.59,5.55-13,7-15.7,2.89-2.42-3.86-5.31-2.89-6.76,2.42a6.39,6.39,0,0,1-6,4.83c-2.66,0-5.31,1.45-6,3.14-.72,1.93-4.59,3.38-8.69,3.62-11.11.24-12.32,1.94-12.32,16.91,0,9.9-.73,12.8-2.42,10.14-1.2-1.93-2.41-10.86-2.41-19.8,0-14.49-.73-16.67-7-23-3.86-3.86-7.24-9.17-7.73-11.83-.72-2.9-3.38-4.83-7.72-5.31-5.08-.73-6.53-2.18-6.53-6.53,0-8.21-4.34-9.9-5.31-1.93-.48,5.8-1.93,6.76-8,6.76-5.56,0-7.25-1.2-8.45-6-1.21-5.32-2.9-6-12.8-6.77-11.11-.72-11.36-1-17.39-13.52-3.39-7-6-15.7-6-19.32,0-8.46-6-10.39-29.71-9.67-20.77.73-26.81,3.63-24.88,12.08,1,3.14.48,6-.72,6.76s-1.69,3.63-1,6.28c1,3.39-.48,5.56-5.07,7.49-4.59,2.17-6.28,4.83-6.28,9.9,0,3.63,1.21,6.77,2.41,6.77a2.48,2.48,0,0,1,2.42,2.65c0,1.45-2.17,2.18-4.83,1.45-3.38-1-6,.24-8,3.38a10.52,10.52,0,0,1-8,4.59,82.11,82.11,0,0,0-12.08,1.45c-7,1.21-7,1.45-6.28,16.67,1,17.63-5.07,35.5-11.59,34.78-7.25-.73-9.66.24-9.66,3.86,0,2.9-1,3.14-6,.73-4.35-1.94-6.76-1.94-9.42.24-2.17,1.93-14,3.38-30.43,4.1-25.12.73-26.57.49-26.57-3.86,0-2.66-2.17-8.7-5.07-13.53-2.66-4.83-4.35-10.38-3.63-12.07,2.18-5.8-1.2-10.63-7.48-10.63-3.14,0-7.49-1.69-9.42-3.62-2.18-1.93-5.8-3.63-8.46-3.63-3.62,0-4.59-1.69-4.59-7.48,0-7.49-.24-7.49-8.93-6.28-4.83,1-9.42,2.65-10.15,3.86-1,1.45-2.89,1.69-4.58.73-1.94-1.45-3.39-18.36-4.35-57.25-1.45-49.75-2.18-56-6-59.89-2.9-2.66-4.59-7.73-4.59-12.56,0-7.25-.72-8.46-5.8-8.46-3.14,0-6.28,1.45-7,2.9-1.69,4.83-6.52-9.42-6.52-18.84,0-5.07-1-8-2.42-7-3.86,2.41-12.07-1.21-12.07-5.32,0-3.86-2.66-12.8-8.22-29.22L2365.53,0Z"/></g></g></g></svg>