<svg xmlns="http://www.w3.org/2000/svg" viewBox="0 0 1280 176"><defs><style>.cls-1{fill:#34495e;}</style></defs><g id="Calque_2" data-name="Calque 2"><g id="Calque_1-2" data-name="Calque 1"><path class="cls-1" d="M978.3,3.2a49.12,49.12,0,0,0-1.9,8.8c-.7,5.8-1.8,7.3-4.6,6.4-1.6-.5-1.8.2-1.8,5.1s-.3,5.8-2,6.2c-1.4.4-2,1.4-2,3.4,0,1.6-.5,2.9-1.1,2.9-.8,0-.9,6.3-.4,22l.8,22h-3.1c-2.4,0-3.1.5-3.6,2.5-1.6,6.2-2.4.9-3-20.3-.4-12.5-1.2-22.9-1.7-23s-.9-1.2-.9-2.3-1.1-3.7-2.5-5.9-2.5-5.1-2.5-6.4c0-1.9-.6-2.5-2.7-2.8-2.3-.2-2.9-.9-3.1-3.3a9,9,0,0,0-1.2-4,19.59,19.59,0,0,1-1.5-5.3c-.9-5.6-2.2-5.3-3.1.5-.3,2.7-1.1,5.4-1.6,6s-.7,2.4-.4,3.8c.5,1.8.2,2.5-.8,2.5a2.18,2.18,0,0,0-1.9,1.2q-.6,1.5-.6,0c-.1-.6-.5-1.2-1.1-1.2s-1,2.4-1,5.4c0,4.6-.3,5.6-2,6.1a2.88,2.88,0,0,0-2,3,4.24,4.24,0,0,1-1.1,3.1c-.8.5-1,7.3-.4,25l.7,24.4-2.6,1.1a6.2,6.2,0,0,0-3.1,3.1c-.4,1-1.1,1.8-1.6,1.8s-.9,1.1-.9,2.5-.4,2.5-1,2.5-1,4.3-1,10.9c0,11.6-1.4,15.5-2.5,7.1-.4-2.7-1.1-5.2-1.6-5.6s-.9-3.2-.9-6.5c0-5.6-.1-5.9-2.5-5.9-2,0-2.5-.5-2.5-2.4,0-2.8-2.1-3.6-10.1-3.6-6.2,0-6.9-.7-6.9-7.6,0-4-4.3-7.3-7.2-5.5a8,8,0,0,1-3.3,1.1c-1.1,0-1.5,1.1-1.5,4.2,0,5.5-3.2,8.8-8.4,8.8-3.2,0-3.6.3-3.6,2.5,0,1.5-.6,2.5-1.5,2.5s-1.5,1.6-1.7,6.2c-.3,5.5-.6,6.3-2.4,6.6s-2.3,1.2-2.7,4.6c-1,7.1-2.3,9.6-5.2,9.6-2.3,0-2.5.4-2.5,4.5v4.4l-4.1-1.4a26.9,26.9,0,0,0-6-1.5c-1.4,0-1.9-.7-1.9-2.9,0-1.6-.5-3.1-1.1-3.3s-1.2-2.3-1.5-4.8c-.7-5.8-1.7-7.5-5.4-9-1.6-.7-3-1.9-3-2.6,0-1.9-1.6-1.8-2.4.2-.9,2.3-6.5,1.1-8.8-1.9l-1.8-2.2-2.1,2.5c-1.4,1.7-2.2,2.1-2.6,1.2a1.86,1.86,0,0,0-1.4-1.2c-1.7,0-5-4.1-5.6-7-.7-3.5-2.3-3-2.3.8a6.82,6.82,0,0,1-7.2,7,73.3,73.3,0,0,0-9.4.6l-6.1.8-.6-9.2c-.4-5.1-.7-11.3-.7-13.7,0-3.6-.3-4.3-2-4.3s-2-.7-2-3.4c0-3.1-.3-3.4-3.5-4-3.9-.8-7.5,0-7.5,1.5,0,.5-.7.9-1.5.9-1.1,0-1.5,1.2-1.5,5s-.4,5-1.5,5c-.8,0-1.5.9-1.5,2s-.4,2-1,2-1,.9-1,2-.4,2-1,2-1,.9-1,2-.4,2-1,2-1,.7-1,1.5c0,1-1.1,1.5-3.5,1.5-2.8,0-3.5-.4-3.5-2,0-1.1-.4-2-1-2s-1-1.8-1-3.9c0-4.3-1.3-5-7.2-4.2-2.4.3-2.8.8-2.8,3.7,0,3.2-.2,3.4-3.6,3.4-2.7,0-3.7.5-4.1,2-.5,1.7-1.4,2-6.4,2-3.3,0-5.9-.4-5.9-.9s-1.3-1.1-2.9-1.3c-2.2-.3-3.1,0-3.4,1.3s-1.7,1.9-4.8,2.1c-3.7.2-4.5.7-4.7,2.5-.2,1.3-.8,2.3-1.3,2.3s-.9.8-.9,1.7c0,1.3-.3,1.4-1.2.5s-2.1-.1-5,3.1c-3.7,4-4,4.1-5.3,2.3-1.7-2.3-4.5-1.4-4.5,1.4,0,2.3-1.2,2.4-11.2,1-6.7-1-9.7-2.7-11.1-6.3a2.59,2.59,0,0,0-2.2-1.7c-1.1,0-1.5-1.2-1.5-4.9v-4.9l-3.7-.5c-2.1-.2-4.2,0-4.8.5-1,.9-1.1,1.2-1.3,5.6l-.2,2.4-3.3-2.1c-3.3-2-3.4-2-6.8-.2-3,1.6-3.4,2.3-3.7,6.4-.2,3.6-.7,4.6-2.4,5a2.94,2.94,0,0,1-3.4-1.1c-.9-1.3-1.5-1.4-2.6-.4s-1.7.9-2.7-.1-1.6-.7-2.8,1c-1.8,2.6-4.1,3-4.9.8s-3.4-1.8-3.4.7-4.5,6.4-5.4,4.9c-.3-.5-1.5-.7-2.5-.4a2.28,2.28,0,0,1-2.5-.6c-.9-1.3-3.6-.3-3.6,1.4a2.07,2.07,0,0,0,1.3,1.8c.6.3-1.6.6-5,.6-6.1.1-6.3,0-6.3-2.4,0-2.6-2.3-3.5-3.5-1.4a1.71,1.71,0,0,1-1.9.6c-.7-.3-2.3.4-3.7,1.4-2.6,2-4.9,2.5-4.9.9,0-.6-.7-1-1.5-1a1.54,1.54,0,0,0-1.5,1.5c0,2.5-3,1.7-4-1-.8-2.2-1.4-2.4-3.7-1.9a9.92,9.92,0,0,0-4.4,2.7c-1.9,2.5-4.9,1.7-4.9-1.3,0-1.1-.7-2-1.5-2q-1.5,0-1.5,3c0,3-.1,3-5.5,3-4.1,0-5.6.4-6.4,1.7-1.3,2.2-1.2,2.5-1.7-7.2-.8-14.7-1.1-15.5-7.5-15.5-3.7,0-4.9.4-4.9,1.5,0,.8-.4,1.5-1,1.5a1.2,1.2,0,0,0-1,1.2c0,.9-2,1.3-6.5,1.4h-6.4l-.3-4-.3-4.1-4.7-.3-4.7-.3-.3,4.8c-.3,4.7-.3,4.7-3.8,4.8-3,0-3.5.4-3.8,2.7-.4,3-2.6,5.3-4.2,4.3-.5-.3-1-2.6-1-5a24.78,24.78,0,0,0-1.1-7.2,31.07,31.07,0,0,1-1.5-7.3c-.3-2.4-.9-4.9-1.4-5.4a5.19,5.19,0,0,1-1-3.3c0-1.3-.4-2.3-.9-2.3-2.3,0-4.1,1.4-4.1,3.2a2.65,2.65,0,0,1-2,2.5,2.75,2.75,0,0,0-2,2.4,1.72,1.72,0,0,1-1.5,1.9c-1.4,0-1.9,1.4-1.8,4.7.1.7-.3,1.3-.7,1.3-1.6,0-3,6.4-3,13.2,0,4.8-.5,7.4-1.5,8.4-2.2,2.2-3.5.8-3.5-3.7V121H439v3.5a9,9,0,0,1-1.9,5.6c-1.8,2-1.9,2-2.9.2s-1.2-1.7-2.4-.1c-1.4,1.8-5.1,2.4-8.5,1.3-1.5-.5-2.3-1.6-2.5-3.9-.3-2.9-.5-3.1-4.3-3.1s-4,.2-4.3,3.2c-.2,1.8-.7,3.3-1.1,3.3-1,0-2.1-3.5-2.1-6.8,0-1.5-.6-2.2-2-2.2-1.1,0-2-.6-2-1.3a31.38,31.38,0,0,0-1.1-5c-.9-3.4-1.2-3.7-3.7-3a16.37,16.37,0,0,1-4.7.5,5.78,5.78,0,0,0-3.2,1c-.9.8-1.3.7-1.3-.2s-.3-1-1.4-.1c-1.7,1.4-2.6-.5-2.6-5.3,0-3.9-3.9-8.3-5.7-6.5-.8.8-1.9.4-3.9-1.7l-2.8-2.9-2.2,2.2c-1.4,1.4-2.4,4-2.8,7.7l-.7,5.6-4-.5c-2.3-.3-3.9-.1-3.9.5s-.6,1-1.4,1-1.5-1.6-1.8-4.9a14,14,0,0,0-3.1-8.1c-1.5-1.7-2.7-2.6-2.7-1.8a3.83,3.83,0,0,1-1.9,2.5c-1.4.9-2,2.9-2.6,8.7-.4,4.2-1.1,7.6-1.6,7.6s-.9,1.3-.9,2.9c0,2.5-.4,3-2.7,3.3-2.8.3-2.8.4-3.4,8.8-.3,4.7-.6,7.9-.7,7.2-.6-3.9-7.2-5.9-7.2-2.2,0,1.6-.7,2-3,2-2.5,0-3-.4-3-2.5s-.5-2.5-3-2.5-3,.4-3,2.2c0,2-.5,2.3-3.9,2.2-4.7-.1-6.1-.9-6.1-3.5s-5-2.7-5.7.1-3.2,2.5-4.3-.5c-1.3-3.4-4.7-3.3-6.3.2-1.1,2.7-1.2,2.5-1.5-3s-.5-5.7-2.8-5.7c-2.5,0-2.6-.1-2.2-6.7l.3-6.7-3.1-.8a23.4,23.4,0,0,0-7.5,0c-4.4.8-4.4.8-4.4,5-.1,2.3-.6,4.7-1.3,5.4-.9.9-1.2.5-1.2-2.1,0-4.8-1.6-7.1-5-7.1-2.6,0-3-.4-3-2.6s-.3-2.5-3.2-2.2c-2.4.2-3.4.9-3.8,2.6a6.3,6.3,0,0,1-3,3.5c-2.3,1.2-2.6,1.9-3.4,12l-.8,10.7h-2.9c-1.6,0-2.9.4-2.9,1a1,1,0,0,1-1,1c-.6,0-1-2.7-1-6,0-4.7-.3-6-1.5-6s-1.5,1.4-1.5,6.5-.3,6.5-1.5,6.5c-1.8,0-1.8.2-1.5-21,.2-17.8-.3-22-2.8-22a6,6,0,0,1-3.4-1.7c-1.7-1.5-1.9-1.5-3.6,0A5.6,5.6,0,0,1,220,98c-2.3,0-3.9,3.4-4,8.6,0,2.8-.3,9.9-.7,15.7-.6,10.1-.7,10.7-2.8,10.7a5.32,5.32,0,0,0-3.3,1.2c-.8.8-1.5.8-2.6-.2-.9-.7-1.3-1.6-1-2.1s-.9-.9-2.5-.9-3.1-.5-3.1-1.1-1.4-1-3.5-.7-3.6-.1-3.9-.9-1.9-1.3-3.7-1.3c-2.2,0-3.2.5-3.6,2-.4,1.7-1.4,2-5.8,2h-5.2l.5-18.3.5-18.2-3.4-1.3c-2.2-.8-3.5-.9-3.7-.2-.2.5-2.1,1-4.2,1-3,0-4.2.5-5,2.1-.7,1.1-1.4,1.8-1.7,1.5-1.1-1-4.3,1.5-4.3,3.3a2.72,2.72,0,0,1-1.4,2.4c-.8.3-1.8,2.2-2.2,4.2-.9,4.7-1.9,3.5-3.6-4.4l-1.4-6.3-2.4,7.1c-2.6,7.7-4,9.8-4,5.7,0-1.4-.4-2.6-1-2.6s-1-1.2-1.1-2.8a16.46,16.46,0,0,0-.8-4.7c-.7-1.6-1-1-1.6,2.7-.4,2.7-1.1,4.8-1.6,4.8s-.9.8-.9,1.9a4.8,4.8,0,0,1-1.5,3.1,4.42,4.42,0,0,0-1.5,2.6,6.34,6.34,0,0,1-1.9,3.3c-1.9,1.9-2,1.9-3.7-1.7l-1.7-3.7-1.3,3.2a12.41,12.41,0,0,1-2.4,3.8c-.5.3-1,1.8-1,3.2a2.89,2.89,0,0,1-1.8,3c-1,.2-2.4,1.7-3.1,3.4s-1.7,2.9-2.3,2.9c-1.3,0-3.8,2.6-3.1,3.4.3.3-.6,1-2.1,1.5s-2.6,1.5-2.6,2.1-.3,1-.7,1-.6-2.2-.5-4.9l.4-4.8-3.6-.7c-2.7-.5-3.6-1.2-3.6-2.6,0-1.6-.7-2-3-2q-3,0-3,1.5c0,.9-.6,1.2-1.5.9-1.1-.5-1.5-2.3-1.5-7.9,0-5.9-.4-7.5-2-9a5.77,5.77,0,0,1-2-3.2c0-.7-1-1.3-2.3-1.3-1.6,0-2.6.9-3.4,3-.6,1.6-1.8,3-2.7,3s-1.6.4-1.6.9-2.7,1.1-5.9,1.5l-5.9.7-1,4.7c-.5,2.6-1,3.7-1.1,2.4-.1-1.5-.7-2.2-2.1-2.2a1.8,1.8,0,0,1-2-2c0-1.6-.7-2-3.4-2-2.5,0-3.5.5-3.9,2a2.53,2.53,0,0,1-2.1,2c-1.2,0-1.6,1-1.6,4.5,0,2.5-.4,4.5-1,4.5a1.08,1.08,0,0,1-1-1c0-.6-.9-1-2-1s-2.6-1.2-3.5-3c-1.7-3.4-3.9-3.9-5.4-1.3-.9,1.6-1,1.5-1.1-.5a3.16,3.16,0,0,0-1.5-2.8,3.59,3.59,0,0,1-1.5-3.1c0-2.1-.4-2.4-2.2-2a19,19,0,0,0-4,1.2c-1.5.6-1.8.2-1.8-2.5,0-1.9-.4-2.9-1-2.5s-2.2-.1-3.5-.9c-2.1-1.4-2.5-1.4-2.5-.2,0,.9-.7,1.2-1.9.9-1.7-.4-2.6.2-5.9,4.1C.3,115.5,0,123.4,0,146v30H1280V141.5c0-23.3-.3-34.5-1-34.5a1,1,0,0,1-.9-1.3,6.81,6.81,0,0,0-.4-2.7,21.52,21.52,0,0,1-.9-5c-.3-3.2-.6-3.5-3.7-3.8-2.2-.2-3.5-.9-3.8-2.2a4.42,4.42,0,0,0-3.3-2.5c-3.4-.7-3.6-1.1-3.9-10-.1-3.9-.6-7.3-1-7.7s-2.9-1.2-5.5-1.7c-4.9-.9-6.8-2.4-6-4.6a1.44,1.44,0,0,0-1-1.8,2.74,2.74,0,0,1-1.6-2.3c0-1.3-.6-1.5-3.1-1-1.7.3-3.5.6-4,.6s-.6.7-.3,1.5,0,1.5-1,1.5-1.6.9-1.6,2.4c0,2.1-.5,2.4-6.1,3l-6.1.7.4,9.2c.3,9,.2,9.2-1.9,9-1.7-.2-2.2.3-2.5,2.5s-.9,2.8-3,3c-2.4.3-2.8,0-2.8-2.2,0-1.9-.7-2.7-2.5-3.2-1.4-.4-2.9-.4-3.2,0s-1.2.1-2-.5c-1-.9-1.3-.8-1.3,0s-.5.9-1,.6c-.8-.5-.7-1.1.1-2.1,1.3-1.5.5-7.9-1.1-8.9s-5,.5-5,2c0,2.4-5.1,3.1-6.7,1-1.2-1.7-1.3-1.7-1.3-.2,0,.9-.5,1.7-1.1,1.7s-.9,1.2-.5,3.5c.7,3.5.7,3.5-2.9,3.5-2.3,0-3.8-.5-4.2-1.6s-1.3-1.4-3-.9a5.32,5.32,0,0,1-4-.7c-1.3-1-1.8-.9-3.3,1-1.9,2.3-5.4,2.9-6.5,1.2s-2.2-1.2-2.8,1a2.65,2.65,0,0,1-2.5,2,2.83,2.83,0,0,0-2.5,1.3c-.3.8-1.9,1.4-3.6,1.5-4.6.1-5.1.8-5.1,7,0,4.1-.3,5.3-1,4.2-.5-.8-1-4.5-1-8.2,0-6-.3-6.9-2.9-9.5a12.59,12.59,0,0,1-3.2-4.9c-.3-1.2-1.4-2-3.2-2.2-2.1-.3-2.7-.9-2.7-2.7,0-3.4-1.8-4.1-2.2-.8-.2,2.4-.8,2.8-3.3,2.8-2.3,0-3-.5-3.5-2.5-.5-2.2-1.2-2.5-5.3-2.8-4.6-.3-4.7-.4-7.2-5.6-1.4-2.9-2.5-6.5-2.5-8,0-3.5-2.5-4.3-12.3-4-8.6.3-11.1,1.5-10.3,5,.4,1.3.2,2.5-.3,2.8s-.7,1.5-.4,2.6c.4,1.4-.2,2.3-2.1,3.1a3.92,3.92,0,0,0-2.6,4.1c0,1.5.5,2.8,1,2.8a1,1,0,0,1,1,1.1c0,.6-.9.9-2,.6a2.72,2.72,0,0,0-3.3,1.4,4.36,4.36,0,0,1-3.3,1.9,33.69,33.69,0,0,0-5,.6c-2.9.5-2.9.6-2.6,6.9.4,7.3-2.1,14.7-4.8,14.4-3-.3-4,.1-4,1.6,0,1.2-.4,1.3-2.5.3-1.8-.8-2.8-.8-3.9.1-.9.8-5.8,1.4-12.6,1.7-10.4.3-11,.2-11-1.6a14.55,14.55,0,0,0-2.1-5.6c-1.1-2-1.8-4.3-1.5-5,.9-2.4-.5-4.4-3.1-4.4a6.45,6.45,0,0,1-3.9-1.5,6.09,6.09,0,0,0-3.5-1.5c-1.5,0-1.9-.7-1.9-3.1,0-3.1-.1-3.1-3.7-2.6-2,.4-3.9,1.1-4.2,1.6a1.38,1.38,0,0,1-1.9.3c-.8-.6-1.4-7.6-1.8-23.7-.6-20.6-.9-23.2-2.5-24.8a7.36,7.36,0,0,1-1.9-5.2c0-3-.3-3.5-2.4-3.5a3.59,3.59,0,0,0-2.9,1.2c-.7,2-2.7-3.9-2.7-7.8,0-2.1-.4-3.3-1-2.9-1.6,1-5-.5-5-2.2s-1.1-5.3-3.4-12.1L979.4,0Z"/></g></g></svg>