<?xml version="1.0" encoding="utf-8"?>
<!-- Generator: Adobe Illustrator 25.0.1, SVG Export Plug-In . SVG Version: 6.00 Build 0)  -->
<svg version="1.1" xmlns="http://www.w3.org/2000/svg" xmlns:xlink="http://www.w3.org/1999/xlink" x="0px" y="0px"
	 viewBox="0 0 100 73.6" style="enable-background:new 0 0 100 73.6;" xml:space="preserve">
<style type="text/css">
	.st0{fill:#F9F9F9;}
</style>
<g id="Calque_2">
</g>
<g id="Calque_1">
	<g>
		<path class="st0" d="M43.7,4.1L20.4,23.2l-13,1.2c-2.7,0.3-4.8,2.5-4.8,5.3v17.7c0,2.7,2.1,5,4.8,5.3l13,1.2L43.7,73
			c1.9,1.6,4.8,0.2,4.8-2.3V6.4C48.4,3.9,45.6,2.5,43.7,4.1z"/>
		<path class="st0" d="M66.2,27.5c-1.3-2.2-4.3-2.7-6.3-1l-0.3,0.2c-1.4,1.2-1.8,3.3-0.9,4.9c1.1,2,1.8,4.3,1.8,6.8
			s-0.7,4.8-1.8,6.8c-0.9,1.6-0.5,3.7,0.9,4.9l0.3,0.2c1.9,1.7,5,1.3,6.3-1c1.8-3.2,2.9-7,2.9-11C69.1,34.5,68,30.8,66.2,27.5z"/>
		<path class="st0" d="M76.7,17.6c-1.4-2-4.3-2.3-6.1-0.7l-0.2,0.2c-1.5,1.4-1.8,3.7-0.6,5.4c3.2,4.5,5,10.1,5,16c0,6-1.9,11.5-5,16
			c-1.2,1.7-0.9,4,0.6,5.4l0.2,0.2c1.8,1.6,4.7,1.3,6.1-0.7c4.2-5.9,6.6-13.1,6.6-20.9C83.3,30.7,80.9,23.5,76.7,17.6z"/>
		<path class="st0" d="M87.2,7.9c-1.5-1.9-4.2-2.2-6-0.6l-0.3,0.2c-1.6,1.4-1.8,3.8-0.5,5.5c5.4,7.1,8.5,15.9,8.5,25.4
			s-3.2,18.4-8.5,25.4c-1.3,1.7-1.1,4.1,0.5,5.5l0.3,0.2c1.8,1.6,4.5,1.3,6-0.6c6.5-8.5,10.3-19.1,10.3-30.6
			C97.5,27,93.7,16.4,87.2,7.9z"/>
	</g>
</g>
</svg>
