<?xml version="1.0" encoding="utf-8"?>
<!-- Generator: Adobe Illustrator 25.0.1, SVG Export Plug-In . SVG Version: 6.00 Build 0)  -->
<svg version="1.1" id="Calque_3" xmlns="http://www.w3.org/2000/svg" xmlns:xlink="http://www.w3.org/1999/xlink" x="0px" y="0px"
	 viewBox="0 0 1538.8 362.3" style="enable-background:new 0 0 1538.8 362.3;" xml:space="preserve">
<style type="text/css">
	.st0{fill:#C8C24E;}
</style>
<g id="yeuxDroit">
	<path id="contour_1" class="contour" d="M1534.6,25.7c-4.4,2.9-8.7,6.2-13.4,8.6c-6.7,3.4-13.8,5.9-20.5,9.2c-7.3,3.6-10.4,9.8-9.1,18
		c7.4,47.5-7.2,87.8-39.1,122.8c-58.1,63.8-130.9,92.6-216.4,91.6c-20.8-0.3-41.6-1.3-62.3-1.9c-4.7-0.1-9.5,0.1-14.3,0.4
		c-15.2,0.8-26.1,8.4-30.5,22.6c-5,16.2-8.2,32.9-12.2,49.4c-0.9,3.6-1.5,7.4-3,10.8c-0.9,2-3.2,3.3-4.9,5c-1.4-1.6-3.6-3.1-4.1-4.9
		c-2.4-9.2-5.4-18.4-6.1-27.8c-5.1-64.2,2.9-126.5,28.9-185.9c19.1-43.9,50.2-77.3,90-103.2c55.3-36,116.6-45.8,181.2-41
		c35.3,2.6,70.3,6.6,104.7,14.9c10.3,2.5,20.4,5.8,30.6,8.7C1534.3,24,1534.5,24.8,1534.6,25.7z M1231.3,246.9
		c40.7-0.8,73.6-5.5,104.9-17.8c32.6-12.8,62.7-29.8,84.6-57.7c10.4-13.2,17.6-28.9,25.5-43.9c9.6-18.3,13.6-38.1,12.7-58.7
		c-1-22.2-16.2-41.7-37.1-46.7c-62.5-14.7-122.9-9.7-179.9,21.5c-21.3,11.7-39.7,27.1-54.7,46.2c-23.7,30.1-37.9,64.2-40.9,102.4
		c-2.1,26.5,12.6,45.7,37.6,49.5C1202,244.5,1220.2,245.7,1231.3,246.9z"/>
	<path id="retine_1" class="retine" d="M1292.7,33.8c3,5.6,6.4,10.4,8.5,15.7c12.5,32.9,16.3,66.8,9.6,101.6c-0.9,4.5-3,8.8-4.6,13.4
		C1283.6,149.2,1273.7,55.3,1292.7,33.8z"/>
	<path id="fond_1" class="fond" d="M1231.3,246.9c-11-1.2-29.3-2.4-47.3-5.2c-25-3.8-39.7-23-37.6-49.5c3-38.2,17.2-72.3,40.9-102.4
		c15.1-19.1,33.4-34.5,54.7-46.2c57.1-31.2,117.4-36.2,179.9-21.5c20.9,4.9,36.1,24.5,37.1,46.7c0.9,20.6-3.1,40.4-12.7,58.7
		c-7.9,15-15.1,30.7-25.5,43.9c-21.9,27.9-52,44.9-84.6,57.7C1304.8,241.4,1272,246.1,1231.3,246.9z M1292.7,33.8
		c-18.9,21.5-9,115.3,13.4,130.7c1.6-4.6,3.8-8.9,4.6-13.4c6.8-34.8,2.9-68.6-9.6-101.6C1299.1,44.2,1295.7,39.4,1292.7,33.8z"/>
</g>
<g id="yeuxGauche">
	<path id="contour" class="contour" d="M4.6,24.7c10.2-2.9,20.3-6.2,30.6-8.7C69.7,7.7,104.7,3.7,140,1.1c64.6-4.8,125.8,5,181.2,41
		c39.8,25.9,70.9,59.3,90,103.2c25.9,59.4,34,121.7,28.9,185.9c-0.7,9.4-3.8,18.6-6.1,27.8c-0.5,1.9-2.7,3.3-4.1,4.9
		c-1.7-1.6-4.1-3-4.9-5c-1.5-3.4-2.1-7.2-3-10.8c-4-16.5-7.2-33.3-12.2-49.4c-4.4-14.2-15.3-21.8-30.5-22.6
		c-4.7-0.3-9.5-0.5-14.3-0.4c-20.8,0.6-41.5,1.6-62.3,1.9c-85.4,1.1-158.3-27.8-216.4-91.6c-31.9-35-46.5-75.4-39.1-122.8
		c1.3-8.2-1.8-14.4-9.1-18c-6.7-3.3-13.8-5.8-20.5-9.2c-4.7-2.4-8.9-5.7-13.4-8.6C4.3,26.4,4.4,25.6,4.6,24.7z M354.8,243.4
		c25-3.8,39.7-23,37.6-49.5c-3-38.2-17.2-72.3-40.9-102.4c-15.1-19.1-33.4-34.5-54.7-46.2C239.7,14,179.3,9,116.8,23.7
		c-20.9,4.9-36.1,24.5-37.1,46.7c-0.9,20.6,3.1,40.4,12.7,58.7c7.9,15,15.1,30.7,25.5,43.9c21.9,27.9,52,44.9,84.6,57.7
		c31.4,12.3,64.2,17,104.9,17.8C318.5,247.4,336.8,246.1,354.8,243.4z"/>
	<path id="fond" class="fond" d="M202.5,230.7c-32.6-12.8-62.7-29.8-84.6-57.7c-10.4-13.2-17.6-28.9-25.5-43.9
		C82.9,110.8,78.8,91,79.7,70.4c1-22.2,16.2-41.7,37.1-46.7C179.3,9,239.7,14,296.7,45.2c21.3,11.7,39.7,27.1,54.7,46.2
		c23.7,30.1,37.9,64.2,40.9,102.4c2.1,26.5-12.6,45.7-37.6,49.5c-18,2.8-36.3,4-47.3,5.2C266.7,247.7,233.9,243,202.5,230.7z
		 M237.6,51.2c-12.5,32.9-16.3,66.8-9.6,101.6c0.9,4.5,3,8.8,4.6,13.4C255.1,150.8,265,57,246.1,35.5
		C243.1,41,239.7,45.8,237.6,51.2z"/>
	<path id="retine" class="retine" d="M246.1,35.5c-3,5.6-6.4,10.4-8.5,15.7c-12.5,32.9-16.3,66.8-9.6,101.6c0.9,4.5,3,8.8,4.6,13.4
		C255.1,150.8,265,57,246.1,35.5z"/>
</g>
</svg>
